<svg width="20" height="19" viewBox="0 0 20 19" fill="none" xmlns="http://www.w3.org/2000/svg">
<path d="M1.30252 7.69744H18.6974C19.2923 7.69744 19.7948 7.31795 19.9487 6.74359C20.1025 6.17949 19.8666 5.58462 19.3641 5.28718L10.9435 0.261538C10.3589 -0.0871795 9.64098 -0.0871795 9.06662 0.261538L0.635854 5.28718C0.123033 5.58462 -0.102608 6.17949 0.0512384 6.74359C0.205085 7.31795 0.707649 7.69744 1.30252 7.69744Z" fill="#41966E"/>
<path d="M18.2051 14.364H17.9487V10.0051C17.9487 9.58456 17.6 9.23584 17.1795 9.23584H13.0769C12.6564 9.23584 12.3077 9.58456 12.3077 10.0051V14.364H7.69231V10.0051C7.69231 9.58456 7.34359 9.23584 6.92308 9.23584H2.82051C2.4 9.23584 2.05128 9.58456 2.05128 10.0051V14.364H1.79487C0.810256 14.364 0 15.1743 0 16.1589V18.2102C0 18.6307 0.348718 18.9794 0.769231 18.9794H19.2308C19.6513 18.9794 20 18.6307 20 18.2102V16.1589C20 15.1743 19.1897 14.364 18.2051 14.364Z" fill="#41966E"/>
</svg>
