<svg width="20" height="20" viewBox="0 0 20 20" fill="none" xmlns="http://www.w3.org/2000/svg">
<path d="M19.1385 11.8974C18.3692 11.1282 17.9487 10.1128 17.9487 9.02564V7.94872C17.9487 3.56923 14.3795 0 10 0C5.62051 0 2.05128 3.56923 2.05128 7.94872V9.02564C2.05128 10.1128 1.63077 11.1282 0.861538 11.8974C0.307692 12.4513 0 13.1897 0 13.9795C0 15.6 1.32308 16.9231 2.94359 16.9231H17.0564C18.6769 16.9231 20 15.6 20 13.9795C20 13.1897 19.6923 12.4513 19.1385 11.8974Z" fill="white"/>
<path d="M13.0769 18.4614H6.92304C6.50253 18.4614 6.15381 18.8101 6.15381 19.2307C6.15381 19.6512 6.50253 19.9999 6.92304 19.9999H13.0769C13.4974 19.9999 13.8461 19.6512 13.8461 19.2307C13.8461 18.8101 13.4974 18.4614 13.0769 18.4614Z" fill="white"/>
</svg>
