<svg width="17" height="17" viewBox="0 0 17 17" fill="none" xmlns="http://www.w3.org/2000/svg">
<path d="M16.0392 10.0654C15.4046 9.43077 15.0577 8.59308 15.0577 7.69615V6.80769C15.0577 3.19462 12.1131 0.25 8.5 0.25C4.88692 0.25 1.94231 3.19462 1.94231 6.80769V7.69615C1.94231 8.59308 1.59538 9.43077 0.960769 10.0654C0.503846 10.5223 0.25 11.1315 0.25 11.7831C0.25 13.12 1.34154 14.2115 2.67846 14.2115H14.3215C15.6585 14.2115 16.75 13.12 16.75 11.7831C16.75 11.1315 16.4962 10.5223 16.0392 10.0654Z" fill="#1F7D55"/>
<path d="M11.0382 15.4805H5.96128C5.61435 15.4805 5.32666 15.7682 5.32666 16.1151C5.32666 16.462 5.61435 16.7497 5.96128 16.7497H11.0382C11.3851 16.7497 11.6728 16.462 11.6728 16.1151C11.6728 15.7682 11.3851 15.4805 11.0382 15.4805Z" fill="#1F7D55"/>
</svg>
