<svg width="20" height="18" viewBox="0 0 20 18" fill="none" xmlns="http://www.w3.org/2000/svg">
<path d="M18.95 1.90356C18.28 1.27356 16.86 0.183557 14.81 0.0235571C12.49 -0.176443 10.73 0.943557 9.89 1.62356C9.81 1.68356 9.69 1.69356 9.61 1.62356C8.77 0.943557 7.02 -0.166443 4.69 0.0235571C2.64 0.193557 1.21 1.27356 0.55 1.90356C0.2 2.23356 0 2.69356 0 3.17356V14.2136C0 14.7836 0.28 15.3236 0.74 15.6536C1.2 15.9836 1.77 16.0636 2.3 15.8836C3.09 15.6136 3.92 15.4736 4.73 15.5036C6.51 15.5536 7.88 16.2736 8.71 16.8836C9.02 17.1036 9.38 17.2236 9.75 17.2236C10.12 17.2236 10.48 17.1136 10.79 16.8836C11.62 16.2836 12.99 15.5536 14.77 15.5036C15.59 15.4736 16.41 15.6136 17.2 15.8836C17.73 16.0636 18.3 15.9836 18.76 15.6536C19.22 15.3236 19.5 14.7836 19.5 14.2136V3.17356C19.5 2.68356 19.31 2.23356 18.95 1.90356ZM10.5 14.1036C10.5 14.4636 10.16 14.7636 9.75 14.7636C9.34 14.7636 9 14.4636 9 14.1036V4.42356C9 4.06356 9.34 3.76356 9.75 3.76356C10.16 3.76356 10.5 4.06356 10.5 4.42356V14.1036Z" fill="#41966E"/>
</svg>
