<svg width="8" height="8" viewBox="0 0 8 8" fill="none" xmlns="http://www.w3.org/2000/svg">
<g clip-path="url(#clip0_407_652)">
<path d="M6.86817 0.959962L6.86816 0.959958C6.59759 0.689389 6.1589 0.689389 5.88833 0.959958L5.88833 0.95996L0.959851 5.88845C0.689289 6.15901 0.689289 6.59771 0.959851 6.86827C1.23041 7.13884 1.66912 7.13884 1.93968 6.86827L6.86816 1.9398L6.86817 1.9398C7.13874 1.66922 7.13874 1.23054 6.86817 0.959962Z" fill="white" stroke="white" stroke-width="0.4"/>
<path d="M6.86816 6.86828L6.86816 6.86828C7.13874 6.59772 7.13874 6.15901 6.86816 5.88845L6.86816 5.88845L6.86816 5.88844L1.93968 0.959964L1.93968 0.95996L1.93968 0.95996C1.66912 0.689387 1.23041 0.689388 0.959847 0.959964L0.959846 0.959965C0.689291 1.23054 0.689291 1.66922 0.959845 1.93979L0.959851 1.9398L5.88833 6.86827L5.88833 6.86828C6.15891 7.13883 6.59758 7.13883 6.86816 6.86828Z" fill="white" stroke="white" stroke-width="0.4"/>
</g>
<defs>
<clipPath id="clip0_407_652">
<rect width="8" height="8" fill="white" transform="translate(8) rotate(90)"/>
</clipPath>
</defs>
</svg>
