<svg width="20" height="15" viewBox="0 0 20 15" fill="none" xmlns="http://www.w3.org/2000/svg">
<path d="M16.1538 0H3.84615C1.72308 0 0 1.72308 0 3.84615V4.10256H20V3.84615C20 1.72308 18.2769 0 16.1538 0Z" fill="#41966E"/>
<path d="M0 11.0257C0 13.1488 1.72308 14.8719 3.84615 14.8719H16.1538C18.2769 14.8719 20 13.1488 20 11.0257V5.64111H0V11.0257ZM4.8718 10.2565H7.94872C8.36923 10.2565 8.71795 10.6052 8.71795 11.0257C8.71795 11.4462 8.36923 11.795 7.94872 11.795H4.8718C4.45128 11.795 4.10256 11.4462 4.10256 11.0257C4.10256 10.6052 4.45128 10.2565 4.8718 10.2565Z" fill="#41966E"/>
</svg>
