<svg width="20" height="20" viewBox="0 0 20 20" fill="none" xmlns="http://www.w3.org/2000/svg">
<path d="M8.48781 3.36238L9.22589 2.62429V5.89441C9.22589 6.31471 9.57443 6.66325 9.99473 6.66325C10.415 6.66325 10.7636 6.31471 10.7636 5.89441V2.62429L11.5016 3.36238C11.6554 3.51615 11.8502 3.5879 12.045 3.5879C12.2397 3.5879 12.4345 3.51615 12.5883 3.36238C12.8856 3.06509 12.8856 2.57304 12.5883 2.27576L10.538 0.225525C10.4663 0.153767 10.3843 0.102512 10.292 0.0615069C10.1075 -0.0205023 9.89222 -0.0205023 9.7077 0.0615069C9.61544 0.102512 9.53343 0.153767 9.46167 0.225525L7.41144 2.27576C7.11416 2.57304 7.11416 3.06509 7.41144 3.36238C7.70872 3.65966 8.20078 3.65966 8.49806 3.36238H8.48781Z" fill="#0F1819"/>
<path d="M18.3803 7.25762C16.9042 7.12435 15.4177 7.15511 13.9826 7.37038C12.1579 7.64716 10.856 8.13922 9.69759 8.56977C8.38544 9.06182 7.35008 9.44111 5.92517 9.37961C4.83854 9.32835 3.73142 9.00031 2.6448 8.42625C2.07073 8.12897 1.40441 8.13922 0.861097 8.46725C0.317786 8.79529 0 9.3591 0 9.98442V17.5293C0 18.2674 0.461302 18.9337 1.14813 19.19C2.58329 19.723 4.01845 19.9998 5.44336 19.9998C5.60738 19.9998 5.7714 19.9998 5.93542 19.9895C7.74987 19.9075 9.03127 19.4155 10.2717 18.9337C11.4505 18.4826 12.5679 18.0418 14.1363 17.9803C15.2845 17.9291 16.4736 18.0931 17.6627 18.4519C18.2163 18.6261 18.8211 18.5236 19.2824 18.1853C19.7335 17.8471 20 17.3345 20 16.7707V9.04132C20 8.11871 19.3132 7.36013 18.3906 7.27812L18.3803 7.25762ZM4.8693 16.9142H3.84418C3.42389 16.9142 3.07535 16.5657 3.07535 16.1454C3.07535 15.7251 3.42389 15.3765 3.84418 15.3765H4.8693C5.2896 15.3765 5.63813 15.7251 5.63813 16.1454C5.63813 16.5657 5.2896 16.9142 4.8693 16.9142ZM9.99487 15.8891C8.72373 15.8891 7.68837 14.8537 7.68837 13.5826C7.68837 12.3114 8.72373 11.2761 9.99487 11.2761C11.266 11.2761 12.3014 12.3114 12.3014 13.5826C12.3014 14.8537 11.266 15.8891 9.99487 15.8891ZM16.1456 11.7886H15.1205C14.7002 11.7886 14.3516 11.4401 14.3516 11.0198C14.3516 10.5995 14.7002 10.251 15.1205 10.251H16.1456C16.5659 10.251 16.9144 10.5995 16.9144 11.0198C16.9144 11.4401 16.5659 11.7886 16.1456 11.7886Z" fill="#0F1819"/>
<path d="M9.99491 14.3516C10.4195 14.3516 10.7637 14.0074 10.7637 13.5828C10.7637 13.1582 10.4195 12.814 9.99491 12.814C9.57029 12.814 9.22607 13.1582 9.22607 13.5828C9.22607 14.0074 9.57029 14.3516 9.99491 14.3516Z" fill="#0F1819"/>
</svg>
