<svg width="20" height="20" viewBox="0 0 20 20" fill="none" xmlns="http://www.w3.org/2000/svg">
<path d="M10.75 8C11.4404 8 12 7.44036 12 6.75C12 6.05964 11.4404 5.5 10.75 5.5C10.0596 5.5 9.5 6.05964 9.5 6.75C9.5 7.44036 10.0596 8 10.75 8Z" fill="#1F7D55"/>
<path d="M16.75 0H4.75C3.23 0 2 1.23 2 2.75V4H3.75C4.16 4 4.5 4.34 4.5 4.75C4.5 5.16 4.16 5.5 3.75 5.5H2V9H3.75C4.16 9 4.5 9.34 4.5 9.75C4.5 10.16 4.16 10.5 3.75 10.5H2V14H3.75C4.16 14 4.5 14.34 4.5 14.75C4.5 15.16 4.16 15.5 3.75 15.5H2V16.75C2 18.27 3.23 19.5 4.75 19.5H16.75C18.27 19.5 19.5 18.27 19.5 16.75V2.75C19.5 1.23 18.27 0 16.75 0ZM10.75 4C12.27 4 13.5 5.23 13.5 6.75C13.5 8.27 12.27 9.5 10.75 9.5C9.23 9.5 8 8.27 8 6.75C8 5.23 9.23 4 10.75 4ZM14.5 14.75C14.5 15.16 14.16 15.5 13.75 15.5C13.34 15.5 13 15.16 13 14.75V13.75C13 13.06 12.44 12.5 11.75 12.5H9.75C9.06 12.5 8.5 13.06 8.5 13.75V14.75C8.5 15.16 8.16 15.5 7.75 15.5C7.34 15.5 7 15.16 7 14.75V13.75C7 12.23 8.23 11 9.75 11H11.75C13.27 11 14.5 12.23 14.5 13.75V14.75Z" fill="#1F7D55"/>
<path d="M0.75 4C0.34 4 0 4.34 0 4.75C0 5.16 0.34 5.5 0.75 5.5H2V4H0.75Z" fill="#1F7D55"/>
<path d="M0.75 9C0.34 9 0 9.34 0 9.75C0 10.16 0.34 10.5 0.75 10.5H2V9H0.75Z" fill="#1F7D55"/>
<path d="M0.75 14C0.34 14 0 14.34 0 14.75C0 15.16 0.34 15.5 0.75 15.5H2V14H0.75Z" fill="#1F7D55"/>
</svg>
