<svg width="19" height="20" viewBox="0 0 19 20" fill="none" xmlns="http://www.w3.org/2000/svg">
<path fill-rule="evenodd" clip-rule="evenodd" d="M4.4186 0C4.80392 0 5.11628 0.312359 5.11628 0.697674V1.86047H13.0233V0.697674C13.0233 0.312359 13.3356 0 13.7209 0C14.1062 0 14.4186 0.312359 14.4186 0.697674V1.86973C14.5654 1.87389 14.7024 1.87991 14.8303 1.88864C15.255 1.91761 15.6305 1.97871 15.9861 2.126C16.8409 2.48005 17.5199 3.15915 17.874 4.0139C18.0213 4.3695 18.0824 4.74504 18.1114 5.16975C18.1395 5.58278 18.1395 6.09027 18.1395 6.7194V15.1411C18.1395 15.7702 18.1395 16.2777 18.1114 16.6907C18.0824 17.1154 18.0213 17.491 17.874 17.8466C17.5199 18.7013 16.8409 19.3804 15.9861 19.7345C15.6305 19.8818 15.255 19.9429 14.8303 19.9718C14.4172 20 13.9097 20 13.2806 20H4.85894C4.22981 20 3.72231 20 3.30928 19.9718C2.88458 19.9429 2.50903 19.8818 2.15343 19.7345C1.29868 19.3804 0.619586 18.7013 0.265537 17.8466C0.118241 17.491 0.0571496 17.1154 0.0281722 16.6907C-8.51792e-06 16.2777 -4.63795e-06 15.7702 1.23325e-07 15.1411V6.71941C-4.63795e-06 6.09028 -8.51792e-06 5.58278 0.0281722 5.16975C0.0571496 4.74504 0.118241 4.3695 0.265537 4.0139C0.619586 3.15915 1.29868 2.48005 2.15343 2.126C2.50903 1.97871 2.88458 1.91761 3.30928 1.88864C3.43717 1.87991 3.57412 1.87389 3.72093 1.86973V0.697674C3.72093 0.312359 4.03329 0 4.4186 0ZM1.39535 8.83721V15.1163C1.39535 15.776 1.39573 16.2358 1.42028 16.5957C1.44441 16.9494 1.48954 17.1553 1.55467 17.3126C1.7671 17.8254 2.17456 18.2329 2.68741 18.4453C2.84465 18.5105 3.05061 18.5556 3.40427 18.5797C3.76419 18.6043 4.22402 18.6047 4.88372 18.6047H13.2558C13.9155 18.6047 14.3753 18.6043 14.7353 18.5797C15.0889 18.5556 15.2949 18.5105 15.4521 18.4453C15.965 18.2329 16.3724 17.8254 16.5849 17.3126C16.65 17.1553 16.6951 16.9494 16.7192 16.5957C16.7438 16.2358 16.7442 15.776 16.7442 15.1163V8.83721H1.39535ZM13.2558 3.25581C13.7367 3.25581 14.1114 3.25602 14.4186 3.26564V4.4186C14.4186 4.80392 14.1062 5.11628 13.7209 5.11628C13.3356 5.11628 13.0233 4.80392 13.0233 4.4186V3.25581H13.2558ZM5.11628 3.25581H4.88372C4.40282 3.25581 4.02813 3.25602 3.72093 3.26564V4.4186C3.72093 4.80392 4.03329 5.11628 4.4186 5.11628C4.80392 5.11628 5.11628 4.80392 5.11628 4.4186V3.25581Z" fill="#41966E"/>
</svg>
