<svg width="20" height="15" viewBox="0 0 20 15" fill="none" xmlns="http://www.w3.org/2000/svg">
<path d="M12.0513 4.61523C11.8052 4.61523 11.559 4.65626 11.3334 4.7178C11.9385 5.46652 12.3077 6.39985 12.3077 7.43575C12.3077 8.47164 11.9282 9.40498 11.3334 10.1537C11.5693 10.2152 11.8052 10.2563 12.0513 10.2563C13.6103 10.2563 14.8718 8.99472 14.8718 7.43575C14.8718 5.87677 13.6103 4.61523 12.0513 4.61523Z" fill="#41966E"/>
<path d="M9.23071 7.43602C9.23071 8.18474 9.52815 8.8514 9.99994 9.36422C10.4717 8.86166 10.7692 8.18474 10.7692 7.43602C10.7692 6.6873 10.4717 6.02063 9.99994 5.50781C9.52815 6.01038 9.23071 6.6873 9.23071 7.43602Z" fill="#41966E"/>
<path d="M7.94869 4.61523C6.38971 4.61523 5.12817 5.87677 5.12817 7.43575C5.12817 8.99472 6.38971 10.2563 7.94869 10.2563C8.19484 10.2563 8.44099 10.2152 8.66664 10.1537C8.06151 9.40498 7.69228 8.47164 7.69228 7.43575C7.69228 6.39985 8.07176 5.46652 8.66664 4.7178C8.43074 4.65626 8.19484 4.61523 7.94869 4.61523Z" fill="#41966E"/>
<path d="M16.1538 0H3.84615C1.72308 0 0 1.72308 0 3.84615V11.0256C0 13.1487 1.72308 14.8718 3.84615 14.8718H16.1538C18.2769 14.8718 20 13.1487 20 11.0256V3.84615C20 1.72308 18.2769 0 16.1538 0ZM12.0513 11.7949C11.3026 11.7949 10.6154 11.5897 10 11.2615C9.38462 11.5897 8.69744 11.7949 7.94872 11.7949C5.54872 11.7949 3.58974 9.8359 3.58974 7.4359C3.58974 5.0359 5.54872 3.07692 7.94872 3.07692C8.69744 3.07692 9.38462 3.28205 10 3.61026C10.6154 3.28205 11.3026 3.07692 12.0513 3.07692C14.4513 3.07692 16.4103 5.0359 16.4103 7.4359C16.4103 9.8359 14.4513 11.7949 12.0513 11.7949Z" fill="#41966E"/>
</svg>
