<svg width="20" height="20" viewBox="0 0 20 20" fill="none" xmlns="http://www.w3.org/2000/svg">
<path fill-rule="evenodd" clip-rule="evenodd" d="M14.1396 12.4186L10.4186 15.2093C10.1706 15.3953 9.8295 15.3953 9.58144 15.2093L5.86051 12.4186C5.55225 12.1874 5.48978 11.7501 5.72097 11.4419C5.95216 11.1336 6.38946 11.0711 6.69772 11.3023L9.30237 13.2558V6.51163H10.6977V13.2558L13.3024 11.3023C13.6106 11.0711 14.0479 11.1336 14.2791 11.4419C14.5103 11.7501 14.4478 12.1874 14.1396 12.4186ZM10.6977 6.51163H15.1411C15.7702 6.51162 16.2777 6.51162 16.6907 6.5398C17.1154 6.56878 17.491 6.62987 17.8466 6.77716C18.7013 7.13121 19.3804 7.81031 19.7345 8.66506C19.8818 9.02066 19.9429 9.39621 19.9718 9.82091C20 10.2339 20 10.7414 20 11.3706V14.2108C20 14.84 20 15.3475 19.9718 15.7605C19.9429 16.1852 19.8818 16.5607 19.7345 16.9163C19.3804 17.7711 18.7013 18.4502 17.8466 18.8042C17.491 18.9515 17.1154 19.0126 16.6907 19.0416C16.2777 19.0698 15.7702 19.0698 15.1411 19.0698H4.85894C4.22981 19.0698 3.72231 19.0698 3.30928 19.0416C2.88458 19.0126 2.50904 18.9515 2.15343 18.8042C1.29868 18.4502 0.619586 17.7711 0.265537 16.9163C0.118241 16.5607 0.0571498 16.1852 0.0281724 15.7605C-8.11594e-06 15.3475 -4.44119e-06 14.84 1.15452e-07 14.2108V11.3706C-4.44119e-06 10.7414 -8.11594e-06 10.2339 0.0281724 9.82091C0.0571498 9.39621 0.118241 9.02066 0.265537 8.66506C0.619586 7.81031 1.29868 7.13121 2.15343 6.77716C2.50903 6.62987 2.88458 6.56878 3.30928 6.5398C3.72231 6.51162 4.22982 6.51162 4.85894 6.51163H9.30237V0.697674C9.30237 0.31236 9.61473 0 10 0C10.3854 0 10.6977 0.31236 10.6977 0.697674V6.51163Z" fill="#41966E"/>
</svg>
