<svg width="20" height="20" viewBox="0 0 20 20" fill="none" xmlns="http://www.w3.org/2000/svg">
<path d="M10 0C4.48205 0 0 4.48205 0 10C0 15.518 4.48205 20 10 20C15.518 20 20 15.518 20 10C20 4.48205 15.518 0 10 0ZM6.41026 6.66667C7.11795 6.66667 7.69231 7.24103 7.69231 7.94872C7.69231 8.65641 7.11795 9.23077 6.41026 9.23077C5.70256 9.23077 5.12821 8.65641 5.12821 7.94872C5.12821 7.24103 5.70256 6.66667 6.41026 6.66667ZM14.841 12.2667C14.2154 14.4 12.2256 15.8974 10 15.8974C7.77436 15.8974 5.78462 14.4 5.15897 12.2667C5.0359 11.8564 5.2718 11.4359 5.68205 11.3128C6.09231 11.1897 6.51282 11.4256 6.6359 11.8359C7.06667 13.3231 8.45128 14.359 10 14.359C11.5487 14.359 12.9333 13.3231 13.3641 11.8359C13.4872 11.4256 13.9179 11.1897 14.3179 11.3128C14.7282 11.4359 14.9641 11.8564 14.841 12.2667ZM15.5385 8.43077C15.4154 8.51282 15.2718 8.54359 15.1282 8.54359C14.8718 8.54359 14.6256 8.41026 14.4718 8.18462C14.4615 8.1641 14.1538 7.69231 13.6103 7.68205C13.0462 7.69231 12.7179 8.1641 12.6974 8.18462C12.4615 8.53333 11.9897 8.64615 11.641 8.41026C11.2821 8.18462 11.1795 7.71282 11.4051 7.3641C11.4872 7.24103 12.2051 6.14359 13.6 6.14359H13.6513C15.0051 6.17436 15.7128 7.24103 15.7949 7.3641C16.0205 7.72308 15.9077 8.19487 15.5487 8.42051L15.5385 8.43077Z" fill="#41966E"/>
</svg>
