<svg width="20" height="17" viewBox="0 0 20 17" fill="none" xmlns="http://www.w3.org/2000/svg">
<path d="M19.5432 12.473L12.2854 1.24929C11.7797 0.466004 10.927 0 9.99504 0C9.06304 0 8.21035 0.466004 7.70468 1.24929L0.446926 12.473C-0.108313 13.3257 -0.147972 14.3668 0.337861 15.2591C0.823695 16.1515 1.71604 16.6869 2.73728 16.6869H17.2627C18.274 16.6869 19.1763 16.1515 19.6621 15.2591C20.148 14.3668 20.1083 13.3257 19.5531 12.473H19.5432ZM9.25142 5.02689C9.25142 4.62038 9.58853 4.28327 9.99504 4.28327C10.4016 4.28327 10.7387 4.62038 10.7387 5.02689V9.98438C10.7387 10.3909 10.4016 10.728 9.99504 10.728C9.58853 10.728 9.25142 10.3909 9.25142 9.98438V5.02689ZM10.0149 13.7025C9.60836 13.7025 9.27125 13.3654 9.27125 12.9589C9.27125 12.5524 9.59844 12.2152 10.0149 12.2152C10.4313 12.2152 10.7585 12.5524 10.7585 12.9589C10.7585 13.3654 10.4313 13.7025 10.0149 13.7025Z" fill="#767676"/>
</svg>
