<svg width="28" height="24" viewBox="0 0 28 24" fill="none" xmlns="http://www.w3.org/2000/svg">
<path d="M27.3604 17.9394L17.1996 1.79679C16.4916 0.670232 15.2979 0 13.9931 0C12.6882 0 11.4945 0.670232 10.7866 1.79679L0.625696 17.9394C-0.151638 19.1658 -0.207162 20.6631 0.473006 21.9465C1.15317 23.2299 2.40246 24 3.8322 24H24.1678C25.5837 24 26.8468 23.2299 27.527 21.9465C28.2072 20.6631 28.1516 19.1658 27.3743 17.9394H27.3604ZM12.952 7.22995C12.952 6.64528 13.4239 6.16043 13.9931 6.16043C14.5622 6.16043 15.0341 6.64528 15.0341 7.22995V14.3601C15.0341 14.9447 14.5622 15.4296 13.9931 15.4296C13.4239 15.4296 12.952 14.9447 12.952 14.3601V7.22995ZM14.0208 19.7077C13.4517 19.7077 12.9798 19.2228 12.9798 18.6381C12.9798 18.0535 13.4378 17.5686 14.0208 17.5686C14.6038 17.5686 15.0619 18.0535 15.0619 18.6381C15.0619 19.2228 14.6038 19.7077 14.0208 19.7077Z" fill="#EE2933"/>
</svg>
