<svg width="29" height="29" viewBox="0 0 29 29" fill="none" xmlns="http://www.w3.org/2000/svg">
<path d="M12.8739 17.3855C14.2328 17.3855 15.3391 16.2837 15.3391 14.9285V10.4375C15.3391 10.0342 15.0112 9.70801 14.6075 9.70801C14.2038 9.70801 13.8759 10.0342 13.8759 10.4375V14.9285C13.8759 15.4783 13.427 15.9263 12.8742 15.9263C12.4705 15.9263 12.1426 16.2524 12.1426 16.6557H12.2676L12.1426 16.6556C12.1422 17.0593 12.4702 17.3855 12.8739 17.3855Z" fill="#41966E" stroke="#41966E" stroke-width="0.25"/>
<path d="M7.67871 10.8708V12.598C7.67871 13.0727 8.065 13.457 8.54034 13.457C9.01567 13.457 9.40196 13.0727 9.40196 12.598V10.8708C9.40196 10.396 9.01567 10.0117 8.54034 10.0117C8.065 10.0117 7.67871 10.396 7.67871 10.8708Z" fill="#41966E" stroke="#41966E" stroke-width="0.25"/>
<path d="M20.6741 13.458C21.1495 13.458 21.5358 13.0737 21.5358 12.599V10.8717C21.5358 10.397 21.1495 10.0127 20.6741 10.0127C20.1988 10.0127 19.8125 10.397 19.8125 10.8717V12.599C19.8125 13.0737 20.1988 13.458 20.6741 13.458Z" fill="#41966E" stroke="#41966E" stroke-width="0.25"/>
<path d="M10.0087 20.0806L10.0087 20.0806C12.576 22.2071 16.3031 22.2071 18.8705 20.0806C19.1811 19.8231 19.6422 19.8655 19.9004 20.1752C20.1592 20.4851 20.1164 20.9453 19.8063 21.2027L19.8062 21.2028C18.2514 22.4903 16.3454 23.1341 14.44 23.1341C12.5344 23.1341 10.6287 22.4906 9.07395 21.2028L10.0087 20.0806ZM10.0087 20.0806C9.69805 19.8234 9.23698 19.8658 8.97874 20.1751L8.9787 20.1752M10.0087 20.0806L8.9787 20.1752M8.9787 20.1752C8.7203 20.485 8.76264 20.9453 9.07388 21.2028L8.9787 20.1752Z" fill="#41966E" stroke="#41966E" stroke-width="0.25"/>
<path d="M0.875 10.2422L0.875 10.2423C0.875365 10.6452 1.20325 10.9713 1.6069 10.9713C2.01057 10.9713 2.3385 10.6452 2.3385 10.2419V7.22345C2.3385 4.52849 4.53917 2.33491 7.24468 2.33491H10.274C10.6777 2.33491 11.0056 2.00877 11.0056 1.60545C11.0056 1.20212 10.6777 0.875977 10.274 0.875977H7.24468C3.73273 0.875977 0.875 3.72305 0.875 7.22375L0.875 10.2422Z" fill="#41966E" stroke="#41966E" stroke-width="0.25"/>
<path d="M28.3406 18.8779V18.8778C28.3402 18.4746 28.0124 18.1484 27.6087 18.1484C27.205 18.1484 26.8771 18.4746 26.8771 18.8779V21.8966C26.8771 24.5916 24.6764 26.7852 21.9709 26.7852H18.9416C18.5379 26.7852 18.21 27.1113 18.21 27.5146C18.21 27.918 18.5379 28.2441 18.9416 28.2441H21.9709C25.4829 28.2441 28.3406 25.397 28.3406 21.8963V18.8779Z" fill="#41966E" stroke="#41966E" stroke-width="0.25"/>
<path d="M11.0056 27.5149V27.5148C11.0053 27.1114 10.6775 26.7852 10.2737 26.7852H7.24438C4.53886 26.7852 2.33819 24.5916 2.33819 21.8966V18.8779C2.33819 18.4746 2.01027 18.1484 1.6066 18.1484C1.20293 18.1484 0.875 18.4746 0.875 18.8779V21.8966C0.875 25.3973 3.73273 28.2444 7.24468 28.2444H10.274C10.6777 28.2444 11.0056 27.9183 11.0056 27.5149Z" fill="#41966E" stroke="#41966E" stroke-width="0.25"/>
<path d="M21.9709 0.875H18.9416C18.5379 0.875 18.21 1.20115 18.21 1.60447C18.21 2.00779 18.5379 2.33394 18.9416 2.33394H21.9709C24.6764 2.33394 26.8771 4.52752 26.8771 7.22247V10.2409C26.8771 10.6442 27.205 10.9704 27.6087 10.9704C28.0124 10.9704 28.3403 10.6442 28.3403 10.2409V7.22277C28.3403 3.72208 25.4826 0.875 21.9709 0.875Z" fill="#41966E" stroke="#41966E" stroke-width="0.25"/>
</svg>
