<svg width="24" height="28" viewBox="0 0 24 28" fill="none" xmlns="http://www.w3.org/2000/svg">
<path d="M5.11719 2.55165C7.23499 1.52759 9.56015 0.996909 11.9157 1.00001C14.6739 1.00009 17.3833 1.7234 19.7698 3.09681" stroke="#41966E" stroke-width="1.5" stroke-linecap="round" stroke-linejoin="round"/>
<path d="M23 10.7848C21.9567 8.79881 20.3918 7.13022 18.4711 5.95589C16.5504 4.78156 14.3456 4.14527 12.0903 4.11446C9.83503 4.08365 7.61338 4.65947 5.6609 5.78089C3.70842 6.90231 2.09787 8.52752 1 10.4842" stroke="#41966E" stroke-width="1.5" stroke-linecap="round" stroke-linejoin="round"/>
<path d="M10.7613 26.6506C9.18621 25.4627 7.9074 23.9307 7.02385 22.1734C6.1403 20.416 5.67571 18.4803 5.66602 16.5161C5.66602 14.87 6.32445 13.2914 7.49646 12.1274C8.66847 10.9635 10.2581 10.3096 11.9155 10.3096C13.573 10.3096 15.1626 10.9635 16.3346 12.1274C17.5066 13.2914 18.1651 14.87 18.1651 16.5161" stroke="#41966E" stroke-width="1.5" stroke-linecap="round" stroke-linejoin="round"/>
<path d="M11.9155 16.5166C11.9253 17.4018 12.1132 18.2762 12.4683 19.0882C12.8233 19.9002 13.3382 20.6336 13.9828 21.2451C14.6274 21.8566 15.3886 22.3339 16.2216 22.6489C17.0547 22.964 17.9428 23.1104 18.8336 23.0796C19.2433 23.0737 19.6522 23.0434 20.0582 22.9887" stroke="#41966E" stroke-width="1.5" stroke-linecap="round" stroke-linejoin="round"/>
<path d="M3.58261 22.122C2.89295 20.3374 2.53987 18.442 2.54102 16.5305C2.54102 14.0614 3.52866 11.6934 5.28668 9.94748C7.0447 8.20155 9.42909 7.2207 11.9153 7.2207C14.4015 7.2207 16.7859 8.20155 18.5439 9.94748C20.3019 11.6934 21.2896 14.0614 21.2896 16.5305C21.2896 16.938 21.2088 17.3416 21.0517 17.7181C20.8947 18.0946 20.6645 18.4367 20.3744 18.7248C20.0842 19.013 19.7397 19.2416 19.3606 19.3975C18.9815 19.5535 18.5752 19.6338 18.1648 19.6338C17.7545 19.6338 17.3481 19.5535 16.969 19.3975C16.5899 19.2416 16.2454 19.013 15.9553 18.7248C15.6651 18.4367 15.435 18.0946 15.2779 17.7181C15.1209 17.3416 15.0401 16.938 15.0401 16.5305C15.0401 15.7075 14.7108 14.9181 14.1248 14.3362C13.5388 13.7542 12.744 13.4272 11.9153 13.4272C11.0866 13.4272 10.2918 13.7542 9.70576 14.3362C9.11975 14.9181 8.79054 15.7075 8.79054 16.5305C8.80612 18.1204 9.21161 19.6826 9.97189 21.0819C10.7322 22.4812 11.8244 23.6755 13.1539 24.5612C14.0868 25.1859 15.1267 25.6359 16.2224 25.8892" stroke="#41966E" stroke-width="1.5" stroke-linecap="round" stroke-linejoin="round"/>
</svg>
