<svg width="24" height="24" viewBox="0 0 24 24" fill="none" xmlns="http://www.w3.org/2000/svg">
<path d="M2.5779 19.01L2.55792 19.03C2.28814 18.44 2.11828 17.77 2.04834 17.03C2.11828 17.76 2.30812 18.42 2.5779 19.01Z" fill="#292D32"/>
<path d="M8.99252 10.3801C10.3059 10.3801 11.3705 9.31456 11.3705 8.00012C11.3705 6.68568 10.3059 5.62012 8.99252 5.62012C7.67918 5.62012 6.6145 6.68568 6.6145 8.00012C6.6145 9.31456 7.67918 10.3801 8.99252 10.3801Z" fill="#292D32"/>
<path d="M16.1765 2H7.80345C4.16648 2 1.99829 4.17 1.99829 7.81V16.19C1.99829 17.28 2.18813 18.23 2.55782 19.03C3.41711 20.93 5.25558 22 7.80345 22H16.1765C19.8134 22 21.9816 19.83 21.9816 16.19V13.9V7.81C21.9816 4.17 19.8134 2 16.1765 2ZM20.353 12.5C19.5736 11.83 18.3147 11.83 17.5353 12.5L13.3788 16.07C12.5995 16.74 11.3405 16.74 10.5612 16.07L10.2214 15.79C9.51203 15.17 8.38297 15.11 7.58364 15.65L3.84675 18.16C3.62693 17.6 3.49704 16.95 3.49704 16.19V7.81C3.49704 4.99 4.9858 3.5 7.80345 3.5H16.1765C18.9941 3.5 20.4829 4.99 20.4829 7.81V12.61L20.353 12.5Z" fill="#292D32"/>
</svg>
