<svg width="16" height="20" viewBox="0 0 16 20" fill="none" xmlns="http://www.w3.org/2000/svg">
<path d="M12.5 7.26154V4.8718C12.5 2.18462 10.37 0 7.75 0C5.13 0 3 2.18462 3 4.8718V7.26154C1.29 7.62051 0 9.16923 0 11.0256V16.1538C0 18.2769 1.68 20 3.75 20H11.75C13.82 20 15.5 18.2769 15.5 16.1538V11.0256C15.5 9.16923 14.21 7.61026 12.5 7.26154ZM7.75 1.53846C9.54 1.53846 11 3.0359 11 4.8718V7.17949H4.5V4.8718C4.5 3.0359 5.96 1.53846 7.75 1.53846ZM8.5 15.1282C8.5 15.5487 8.16 15.8974 7.75 15.8974C7.34 15.8974 7 15.5487 7 15.1282V12.0513C7 11.6308 7.34 11.2821 7.75 11.2821C8.16 11.2821 8.5 11.6308 8.5 12.0513V15.1282Z" fill="#41966E"/>
</svg>
