<svg width="22" height="12" viewBox="0 0 22 12" fill="none" xmlns="http://www.w3.org/2000/svg">
<path d="M11 1.1397H1.97436C0.891282 1.1397 0 2.03098 0 3.11406V7.62688C0 8.70996 0.891282 9.60124 1.97436 9.60124H9.87179C10.2892 9.60124 10.639 9.30791 10.7067 8.89047L11.8349 2.12124C11.88 1.87303 11.8123 1.62483 11.6431 1.43303C11.4851 1.24124 11.2482 1.12842 11 1.12842V1.1397Z" fill="#0F1819"/>
<path d="M20.8727 4.7159V3.66667C20.8727 1.64718 19.2255 0 17.206 0C15.1865 0 13.5393 1.64718 13.5393 3.66667V4.7159C12.8737 5.03179 12.4111 5.70872 12.4111 6.48718V9.87179C12.4111 10.9549 13.3024 11.8462 14.3855 11.8462H20.0265C21.1096 11.8462 22.0009 10.9549 22.0009 9.87179V6.48718C22.0009 5.69744 21.5383 5.03179 20.8727 4.7159ZM15.2316 3.66667C15.2316 2.58359 16.1229 1.69231 17.206 1.69231C18.2891 1.69231 19.1804 2.58359 19.1804 3.66667V4.51282H15.2316V3.66667Z" fill="#0F1819"/>
</svg>
