<svg width="14" height="20" viewBox="0 0 14 20" fill="none" xmlns="http://www.w3.org/2000/svg">
<path d="M12.0513 8.20513H2.5641V5.89744C2.5641 3.49744 4.52308 1.53846 6.92308 1.53846C9.32308 1.53846 11.2821 3.49744 11.2821 5.89744C11.2821 6.31795 11.6308 6.66667 12.0513 6.66667C12.4718 6.66667 12.8205 6.31795 12.8205 5.89744C12.8205 2.64615 10.1744 0 6.92308 0C3.67179 0 1.02564 2.64615 1.02564 5.89744V8.38974C0.420513 8.67692 0 9.29231 0 10V15.1282C0 17.8154 2.18462 20 4.8718 20H8.97436C11.6615 20 13.8462 17.8154 13.8462 15.1282V10C13.8462 9.01538 13.0359 8.20513 12.0513 8.20513ZM6.92308 16.9231C5.93846 16.9231 5.12821 16.1128 5.12821 15.1282C5.12821 14.4103 5.54872 13.8051 6.15385 13.518V12.0513C6.15385 11.6308 6.50256 11.2821 6.92308 11.2821C7.34359 11.2821 7.69231 11.6308 7.69231 12.0513V13.518C8.29744 13.8051 8.71795 14.4205 8.71795 15.1282C8.71795 16.1128 7.90769 16.9231 6.92308 16.9231Z" fill="#41966E"/>
</svg>
