<svg width="20" height="11" viewBox="0 0 20 11" fill="none" xmlns="http://www.w3.org/2000/svg">
<path d="M10 1.03589H1.79487C0.810256 1.03589 0 1.84615 0 2.83076V6.93333C0 7.91794 0.810256 8.7282 1.79487 8.7282H8.97436C9.35385 8.7282 9.67179 8.46153 9.73333 8.08204L10.759 1.9282C10.8 1.70256 10.7385 1.47692 10.5846 1.30256C10.441 1.1282 10.2256 1.02563 10 1.02563V1.03589Z" fill="#41966E"/>
<path d="M18.9744 4.28718V3.33333C18.9744 1.49744 17.4769 0 15.641 0C13.8051 0 12.3077 1.49744 12.3077 3.33333V4.28718C11.7026 4.57436 11.282 5.18974 11.282 5.89744V8.97436C11.282 9.95897 12.0923 10.7692 13.0769 10.7692H18.2051C19.1897 10.7692 20 9.95897 20 8.97436V5.89744C20 5.17949 19.5795 4.57436 18.9744 4.28718ZM13.8461 3.33333C13.8461 2.34872 14.6564 1.53846 15.641 1.53846C16.6256 1.53846 17.4359 2.34872 17.4359 3.33333V4.10256H13.8461V3.33333Z" fill="#41966E"/>
</svg>
