<svg width="20" height="18" viewBox="0 0 20 18" fill="none" xmlns="http://www.w3.org/2000/svg">
<path d="M13.5828 11.0539C14.0074 11.0539 14.3516 10.0213 14.3516 8.74743C14.3516 7.47358 14.0074 6.44092 13.5828 6.44092C13.1582 6.44092 12.8139 7.47358 12.8139 8.74743C12.8139 10.0213 13.1582 11.0539 13.5828 11.0539Z" fill="#41966E"/>
<path d="M17.7242 1.50992L10.3434 0.0337506C9.82061 -0.068761 9.26705 0.0645039 8.857 0.402792C8.4367 0.74108 8.20093 1.25364 8.20093 1.7867V15.6873C8.20093 16.2306 8.4367 16.7329 8.857 17.0712C9.18504 17.3377 9.58483 17.4812 9.99488 17.4812C10.1076 17.4812 10.2307 17.471 10.3537 17.4505L17.4372 16.0358V16.9379C17.4372 17.3582 17.7858 17.7067 18.2061 17.7067C18.6264 17.7067 18.9749 17.3582 18.9749 16.9379V15.3695C19.6002 14.8467 20 14.0676 20 13.2065V4.27773C20 2.93483 19.0466 1.77645 17.7345 1.50992H17.7242ZM13.5828 12.5914C12.2706 12.5914 11.2763 10.941 11.2763 8.74723C11.2763 6.55348 12.2706 4.90305 13.5828 4.90305C14.8949 4.90305 15.8893 6.55348 15.8893 8.74723C15.8893 10.941 14.8949 12.5914 13.5828 12.5914Z" fill="#41966E"/>
<path d="M0 3.62159V13.8727C0 14.5903 0.420297 15.1951 1.02512 15.4822V16.9481C1.02512 17.3684 1.37365 17.7169 1.79395 17.7169C2.21425 17.7169 2.56279 17.3684 2.56279 16.9481V15.6667H6.66325V1.82764H1.79395C0.809841 1.82764 0 2.63748 0 3.62159Z" fill="#41966E"/>
</svg>
