<svg width="21" height="20" viewBox="0 0 21 20" fill="none" xmlns="http://www.w3.org/2000/svg">
<path d="M18.9046 16.2134C18.6788 15.6182 18.7198 14.9512 19.0277 14.3253C19.8384 12.6321 20.1565 10.7336 19.941 8.83523C19.4074 4.16614 15.6208 0.471912 10.9415 0.0409189C7.94502 -0.225886 5.04095 0.820811 2.92703 2.92447C0.823378 5.02812 -0.233581 7.95272 0.0434858 10.9389C0.474479 15.6182 4.1687 19.4048 8.8378 19.9384C9.22774 19.9795 9.61769 20 10.0076 20C11.5058 20 12.9835 19.6716 14.3278 19.0251C14.9538 18.7275 15.6208 18.6865 16.216 18.902L17.9092 19.5382C18.3915 19.7127 18.9046 19.6101 19.274 19.2509C19.6331 18.8917 19.746 18.3684 19.5613 17.8861L18.9251 16.1929L18.9046 16.2134ZM14.1021 12.827H5.89268C5.47195 12.827 5.12305 12.4781 5.12305 12.0574C5.12305 11.6367 5.47195 11.2878 5.89268 11.2878H14.1021C14.5228 11.2878 14.8717 11.6367 14.8717 12.0574C14.8717 12.4781 14.5228 12.827 14.1021 12.827ZM14.1021 8.72235H5.89268C5.47195 8.72235 5.12305 8.37345 5.12305 7.95272C5.12305 7.53199 5.47195 7.18309 5.89268 7.18309H14.1021C14.5228 7.18309 14.8717 7.53199 14.8717 7.95272C14.8717 8.37345 14.5228 8.72235 14.1021 8.72235Z" fill="#41966E"/>
</svg>
