<svg width="20" height="20" viewBox="0 0 20 20" fill="none" xmlns="http://www.w3.org/2000/svg">
<path d="M11.0949 4.40137H1.91956C1.25167 4.40137 0.638521 4.74079 0.288149 5.31014C-0.0622218 5.8795 -0.0950693 6.58024 0.200556 7.17149L1.37211 9.50365C1.47065 9.68978 1.51445 9.90876 1.51445 10.1168V16.1497C1.51445 17.814 2.86119 19.1608 4.52545 19.1608H11.0949C12.7592 19.1608 14.1059 17.814 14.1059 16.1497V7.41237C14.1059 5.74811 12.7592 4.40137 11.0949 4.40137ZM10 14.7811H5.62036C5.17145 14.7811 4.79918 14.4088 4.79918 13.9599C4.79918 13.511 5.17145 13.1387 5.62036 13.1387H10C10.4489 13.1387 10.8212 13.511 10.8212 13.9599C10.8212 14.4088 10.4489 14.7811 10 14.7811ZM10 10.4015H5.62036C5.17145 10.4015 4.79918 10.0292 4.79918 9.58029C4.79918 9.13138 5.17145 8.75911 5.62036 8.75911H10C10.4489 8.75911 10.8212 9.13138 10.8212 9.58029C10.8212 10.0292 10.4489 10.4015 10 10.4015Z" fill="#41966E"/>
<path d="M19.7119 0.908775C19.3615 0.339422 18.7484 0 18.0805 0H8.90512C7.32845 0 6.0474 1.21535 5.91602 2.75917H11.0949C13.657 2.75917 15.7483 4.85045 15.7483 7.41254V14.7484C17.2812 14.6061 18.4856 13.3251 18.4856 11.7703V5.72638C18.4856 5.51835 18.5403 5.29936 18.6279 5.11323L19.7995 2.78107C20.0951 2.17887 20.0623 1.48908 19.7119 0.919724V0.908775Z" fill="#41966E"/>
</svg>
