<svg width="20" height="10" viewBox="0 0 20 10" fill="none" xmlns="http://www.w3.org/2000/svg">
<path d="M17.1795 0H2.82051C1.26154 0 0 1.26154 0 2.82051V6.92308C0 8.48205 1.26154 9.74359 2.82051 9.74359H17.1795C18.7385 9.74359 20 8.48205 20 6.92308V2.82051C20 1.26154 18.7385 0 17.1795 0ZM5.8359 5.05641C6.13333 5.35385 6.13333 5.84615 5.8359 6.14359C5.68205 6.29744 5.48718 6.36923 5.29231 6.36923C5.09744 6.36923 4.90256 6.29744 4.74872 6.14359L4.5641 5.95897L4.37949 6.14359C4.22564 6.29744 4.03077 6.36923 3.8359 6.36923C3.64103 6.36923 3.44615 6.29744 3.29231 6.14359C2.99487 5.84615 2.99487 5.35385 3.29231 5.05641L3.47692 4.87179L3.29231 4.68718C2.99487 4.38974 2.99487 3.89744 3.29231 3.6C3.58974 3.30256 4.08205 3.30256 4.37949 3.6L4.5641 3.78462L4.74872 3.6C5.04615 3.30256 5.53846 3.30256 5.8359 3.6C6.13333 3.89744 6.13333 4.38974 5.8359 4.68718L5.65128 4.87179L5.8359 5.05641ZM11.2615 5.05641C11.559 5.35385 11.559 5.84615 11.2615 6.14359C11.1077 6.29744 10.9128 6.36923 10.7179 6.36923C10.5231 6.36923 10.3282 6.29744 10.1744 6.14359L9.98974 5.95897L9.80513 6.14359C9.65128 6.29744 9.45641 6.36923 9.26154 6.36923C9.06667 6.36923 8.87179 6.29744 8.71795 6.14359C8.42051 5.84615 8.42051 5.35385 8.71795 5.05641L8.90256 4.87179L8.71795 4.68718C8.42051 4.38974 8.42051 3.89744 8.71795 3.6C9.01538 3.30256 9.50769 3.30256 9.80513 3.6L9.98974 3.78462L10.1744 3.6C10.4718 3.30256 10.9641 3.30256 11.2615 3.6C11.559 3.89744 11.559 4.38974 11.2615 4.68718L11.0769 4.87179L11.2615 5.05641ZM16.6872 5.05641C16.9846 5.35385 16.9846 5.84615 16.6872 6.14359C16.5333 6.29744 16.3385 6.36923 16.1436 6.36923C15.9487 6.36923 15.7538 6.29744 15.6 6.14359L15.4154 5.95897L15.2308 6.14359C15.0769 6.29744 14.882 6.36923 14.6872 6.36923C14.4923 6.36923 14.2974 6.29744 14.1436 6.14359C13.8462 5.84615 13.8462 5.35385 14.1436 5.05641L14.3282 4.87179L14.1436 4.68718C13.8462 4.38974 13.8462 3.89744 14.1436 3.6C14.441 3.30256 14.9333 3.30256 15.2308 3.6L15.4154 3.78462L15.6 3.6C15.8974 3.30256 16.3897 3.30256 16.6872 3.6C16.9846 3.89744 16.9846 4.38974 16.6872 4.68718L16.5026 4.87179L16.6872 5.05641Z" fill="#41966E"/>
</svg>
