<svg width="20" height="20" viewBox="0 0 20 20" fill="none" xmlns="http://www.w3.org/2000/svg">
<path d="M17.9282 1.12666C17.8469 0.425391 17.2269 -0.0726136 16.5256 0.00869322L15.2552 0.15098C14.5641 0.232287 14.0559 0.852251 14.1372 1.55352L16.0886 18.8312C16.1597 19.4817 16.7187 19.9593 17.359 19.9593C17.3997 19.9593 17.4505 19.9593 17.5013 19.9593L18.7819 19.8171C19.1173 19.7764 19.4222 19.6138 19.6356 19.3495C19.849 19.0853 19.9405 18.7499 19.8999 18.4145L17.9485 1.13682L17.9282 1.12666Z" fill="#41966E"/>
<path d="M11.9419 0.181396H8.89294C7.91725 0.181396 7.11435 0.984301 7.11435 1.95998V4.24674H13.7205V1.95998C13.7205 0.984301 12.9176 0.181396 11.9419 0.181396Z" fill="#41966E"/>
<path d="M7.11435 18.2213C7.11435 19.197 7.91725 19.9999 8.89294 19.9999H11.9419C12.9176 19.9999 13.7205 19.197 13.7205 18.2213V5.77124H7.11435V18.2213Z" fill="#41966E"/>
<path d="M0 18.2213C0 19.197 0.802904 19.9999 1.77859 19.9999H4.82759C5.80327 19.9999 6.60618 19.197 6.60618 18.2213V5.77124H0V18.2213Z" fill="#41966E"/>
<path d="M4.82759 0.181396H1.77859C0.802904 0.181396 0 0.984301 0 1.95998V4.24674H6.60618V1.95998C6.60618 0.984301 5.80327 0.181396 4.82759 0.181396Z" fill="#41966E"/>
</svg>
