<svg width="17" height="17" viewBox="0 0 17 17" fill="none" xmlns="http://www.w3.org/2000/svg">
<path d="M16.3135 15.4166L12.3451 11.4482C13.352 10.2382 13.9612 8.68134 13.9612 6.98061C13.9612 3.1307 10.8305 0 6.98061 0C3.1307 0 0 3.1307 0 6.98061C0 10.8305 3.1307 13.9612 6.98061 13.9612C8.67287 13.9612 10.2298 13.352 11.4482 12.3451L15.4166 16.3135C15.5435 16.4404 15.7042 16.4996 15.865 16.4996C16.0258 16.4996 16.1865 16.4404 16.3135 16.3135C16.5588 16.0681 16.5588 15.6619 16.3135 15.4166ZM1.2692 6.98061C1.2692 3.83299 3.83299 1.2692 6.98061 1.2692C10.1282 1.2692 12.692 3.83299 12.692 6.98061C12.692 10.1282 10.1282 12.692 6.98061 12.692C3.83299 12.692 1.2692 10.1282 1.2692 6.98061Z" fill="#969696"/>
</svg>
