<svg width="20" height="17" viewBox="0 0 20 17" fill="none" xmlns="http://www.w3.org/2000/svg">
<path d="M14.1025 3.07715H5.89741C4.9128 3.07715 4.10254 3.8874 4.10254 4.87202V15.1284C4.10254 16.113 4.9128 16.9233 5.89741 16.9233H14.1025C15.0872 16.9233 15.8974 16.113 15.8974 15.1284V4.87202C15.8974 3.8874 15.0872 3.07715 14.1025 3.07715ZM9.99997 12.8207H7.94869C7.52818 12.8207 7.17946 12.472 7.17946 12.0515C7.17946 11.631 7.52818 11.2823 7.94869 11.2823H9.99997C10.4205 11.2823 10.7692 11.631 10.7692 12.0515C10.7692 12.472 10.4205 12.8207 9.99997 12.8207ZM12.0513 8.71817H7.94869C7.52818 8.71817 7.17946 8.36946 7.17946 7.94894C7.17946 7.52843 7.52818 7.17971 7.94869 7.17971H12.0513C12.4718 7.17971 12.8205 7.52843 12.8205 7.94894C12.8205 8.36946 12.4718 8.71817 12.0513 8.71817Z" fill="#41966E"/>
<path d="M17.1795 0H2.82051C1.26154 0 0 1.26154 0 2.82051V4.87179C0 6.33846 1.12821 7.53846 2.5641 7.66154V4.87179C2.5641 3.0359 4.06154 1.53846 5.89744 1.53846H14.1026C15.9385 1.53846 17.4359 3.0359 17.4359 4.87179V7.66154C18.8718 7.5282 20 6.33846 20 4.87179V2.82051C20 1.26154 18.7385 0 17.1795 0Z" fill="#41966E"/>
</svg>
