<svg width="20" height="17" viewBox="0 0 20 17" fill="none" xmlns="http://www.w3.org/2000/svg">
<path d="M19.2308 0H0.769231C0.348718 0 0 0.348718 0 0.769231C0 1.18974 0.348718 1.53846 0.769231 1.53846H4.10256V14.1026C4.10256 15.6615 5.3641 16.9231 6.92308 16.9231H13.0769C14.6359 16.9231 15.8974 15.6615 15.8974 14.1026V1.53846H19.2308C19.6513 1.53846 20 1.18974 20 0.769231C20 0.348718 19.6513 0 19.2308 0ZM10 10.7692C8.44103 10.7692 7.17949 9.50769 7.17949 7.94872C7.17949 6.38974 8.44103 5.1282 10 5.1282C11.559 5.1282 12.8205 6.38974 12.8205 7.94872C12.8205 9.50769 11.559 10.7692 10 10.7692Z" fill="#41966E"/>
<path d="M9.99995 9.23077C10.708 9.23077 11.282 8.65678 11.282 7.94872C11.282 7.24067 10.708 6.66667 9.99995 6.66667C9.29189 6.66667 8.7179 7.24067 8.7179 7.94872C8.7179 8.65678 9.29189 9.23077 9.99995 9.23077Z" fill="#41966E"/>
</svg>
