<svg width="20" height="21" viewBox="0 0 20 21" fill="none" xmlns="http://www.w3.org/2000/svg">
<path d="M10.0001 2.64021C10.5303 2.64021 10.9601 2.2104 10.9601 1.68021C10.9601 1.15003 10.5303 0.720215 10.0001 0.720215V2.64021ZM19.9201 10.6402C19.9201 10.11 19.4903 9.68021 18.9601 9.68021C18.4299 9.68021 18.0001 10.11 18.0001 10.6402H19.9201ZM18.9601 2.64021C19.4903 2.64021 19.9201 2.2104 19.9201 1.68021C19.9201 1.15003 19.4903 0.720215 18.9601 0.720215V2.64021ZM13.7274 0.720215C13.1973 0.720215 12.7674 1.15003 12.7674 1.68021C12.7674 2.2104 13.1973 2.64021 13.7274 2.64021V0.720215ZM19.9201 1.68021C19.9201 1.15003 19.4903 0.720215 18.9601 0.720215C18.4299 0.720215 18.0001 1.15003 18.0001 1.68021H19.9201ZM18.0001 6.98069C18.0001 7.51087 18.4299 7.94069 18.9601 7.94069C19.4903 7.94069 19.9201 7.51087 19.9201 6.98069H18.0001ZM19.6389 2.35904C20.0138 1.98414 20.0138 1.37629 19.6389 1.00139C19.264 0.626493 18.6562 0.626493 18.2813 1.00139L19.6389 2.35904ZM9.32129 9.96143C8.94638 10.3363 8.94638 10.9441 9.32129 11.319C9.69621 11.6939 10.304 11.6939 10.6789 11.319L9.32129 9.96143ZM10.0001 0.720215H6.16008V2.64021H10.0001V0.720215ZM6.16008 0.720215C2.80219 0.720215 0.0800781 3.44233 0.0800781 6.80021H2.00008C2.00008 4.5027 3.86257 2.64021 6.16008 2.64021V0.720215ZM0.0800781 6.80021V14.4802H2.00008V6.80021H0.0800781ZM0.0800781 14.4802C0.0800781 17.8382 2.80219 20.5602 6.16008 20.5602V18.6402C3.86257 18.6402 2.00008 16.7777 2.00008 14.4802H0.0800781ZM6.16008 20.5602H13.8401V18.6402H6.16008V20.5602ZM13.8401 20.5602C17.198 20.5602 19.9201 17.8382 19.9201 14.4802H18.0001C18.0001 16.7777 16.1376 18.6402 13.8401 18.6402V20.5602ZM19.9201 14.4802V10.6402H18.0001V14.4802H19.9201ZM18.9601 0.720215H13.7274V2.64021H18.9601V0.720215ZM18.0001 1.68021V6.98069H19.9201V1.68021H18.0001ZM18.2813 1.00139L9.32129 9.96143L10.6789 11.319L19.6389 2.35904L18.2813 1.00139Z" fill="black"/>
</svg>
