<svg width="17" height="16" viewBox="0 0 17 16" fill="none" xmlns="http://www.w3.org/2000/svg">
<path d="M9.26039 6.31912V7.37144C9.26039 7.60716 9.38667 7.81763 9.59713 7.92707C9.68974 7.97758 9.79076 8.00283 9.89178 8.00283C10.0181 8.00283 10.1359 7.96916 10.2454 7.89339L15.2965 4.52598C15.4733 4.40812 15.5743 4.21449 15.5743 4.00403C15.5743 3.79356 15.4649 3.59994 15.2965 3.48208L10.2454 0.106244C10.0517 -0.0200342 9.79918 -0.0368712 9.59713 0.0725698C9.39509 0.182011 9.26039 0.392474 9.26039 0.628193V1.68051H1.47324C0.665065 1.68051 0 2.34558 0 3.15375V4.83746C0 5.64564 0.665065 6.31071 1.47324 6.31071H9.26039V6.31912Z" fill="#41966E"/>
<path d="M14.9429 9.68602H7.15576V8.6337C7.15576 8.39799 7.02948 8.18752 6.81902 8.07808C6.61698 7.96864 6.36442 7.97706 6.17079 8.11176L1.11967 11.4792C0.94288 11.597 0.841858 11.7907 0.841858 12.0011C0.841858 12.2116 0.951299 12.4136 1.11967 12.5231L6.17079 15.8905C6.28023 15.9578 6.39809 15.9999 6.52437 15.9999C6.62539 15.9999 6.72642 15.9747 6.81902 15.9242C7.02107 15.8147 7.15576 15.6043 7.15576 15.3685V14.3162H14.9429C15.7511 14.3162 16.4162 13.6512 16.4162 12.843V11.1593C16.4162 10.3511 15.7511 9.68602 14.9429 9.68602Z" fill="#41966E"/>
</svg>
