<svg width="20" height="15" viewBox="0 0 20 15" fill="none" xmlns="http://www.w3.org/2000/svg">
<path d="M16.1538 0H3.84615C1.72308 0 0 1.72308 0 3.84615V11.0256C0 13.1487 1.72308 14.8718 3.84615 14.8718H16.1538C18.2769 14.8718 20 13.1487 20 11.0256V3.84615C20 1.72308 18.2769 0 16.1538 0ZM6.92308 10.2564C6.72821 10.2564 6.53333 10.1846 6.37949 10.0308L4.32821 7.97949C4.03077 7.68205 4.03077 7.18974 4.32821 6.89231C4.62564 6.59487 5.11795 6.59487 5.41539 6.89231L6.92308 8.4L10.4821 4.84103C10.7795 4.54359 11.2718 4.54359 11.5692 4.84103C11.8667 5.13846 11.8667 5.63077 11.5692 5.9282L7.46667 10.0308C7.31282 10.1846 7.11795 10.2564 6.92308 10.2564ZM15.6718 5.9282L11.5692 10.0308C11.4154 10.1846 11.2205 10.2564 11.0256 10.2564C10.8308 10.2564 10.6359 10.1846 10.4821 10.0308C10.1846 9.73333 10.1846 9.24102 10.4821 8.94359L14.5846 4.84103C14.8821 4.54359 15.3744 4.54359 15.6718 4.84103C15.9692 5.13846 15.9692 5.63077 15.6718 5.9282Z" fill="#41966E"/>
</svg>
