<svg width="20" height="20" viewBox="0 0 20 20" fill="none" xmlns="http://www.w3.org/2000/svg">
<path d="M10 0C7.36 0 4.85 1.06 3 2.86V2C3 1.45 2.55 1 2 1C1.45 1 1 1.45 1 2V6C1 6.55 1.45 7 2 7H5C5.55 7 6 6.55 6 6C6 5.45 5.55 5 5 5H3.76C5.27 3.13 7.56 2 10 2C14.41 2 18 5.59 18 10C18 14.41 14.41 18 10 18C5.59 18 2 14.41 2 10C2 9.45 1.55 9 1 9C0.45 9 0 9.45 0 10C0 15.51 4.49 20 10 20C15.51 20 20 15.51 20 10C20 4.49 15.51 0 10 0Z" fill="#9B9B9B"/>
<path d="M10 5C9.45 5 9 5.45 9 6V10C9 10.33 9.17 10.65 9.45 10.83L12.45 12.83C12.62 12.94 12.81 13 13 13C13.32 13 13.64 12.84 13.83 12.55C14.14 12.09 14.01 11.47 13.55 11.16L11 9.46V6C11 5.45 10.55 5 10 5Z" fill="#9B9B9B"/>
</svg>
