<svg width="20" height="21" viewBox="0 0 20 21" fill="none" xmlns="http://www.w3.org/2000/svg">
<path d="M17.0711 3.07107C13.1693 -0.830711 6.83071 -0.830711 2.92893 3.07107C-0.972848 6.97285 -0.972848 13.3114 2.92893 17.2132C6.83071 21.115 13.1693 21.115 17.0711 17.2132C20.9728 13.3114 20.9728 6.97285 17.0711 3.07107ZM10.7688 14.4936C10.7688 14.9142 10.4206 15.2623 10 15.2623C9.78243 15.2623 9.59387 15.1753 9.45607 15.0375C9.31828 14.8997 9.23125 14.7111 9.23125 14.4936L9.23125 10.9109L5.64857 10.9109C5.431 10.9109 5.24244 10.8239 5.10465 10.6861C4.96685 10.5483 4.87982 10.3597 4.87982 10.1421C4.87982 9.7215 5.22794 9.37338 5.64857 9.37338L9.23125 9.37338L9.23125 5.79071C9.23125 5.37007 9.57936 5.02196 10 5.02196C10.4206 5.02196 10.7688 5.37007 10.7688 5.79071L10.7688 9.37338L14.3514 9.37338C14.7721 9.37338 15.1202 9.7215 15.1202 10.1421C15.1202 10.5628 14.7721 10.9109 14.3514 10.9109L10.7688 10.9109L10.7688 14.4936Z" fill="#41966E"/>
</svg>
