<svg width="30" height="29" viewBox="0 0 30 29" fill="none" xmlns="http://www.w3.org/2000/svg">
<path d="M22.0711 7.07107C18.1693 3.16929 11.8307 3.16929 7.92893 7.07107C4.02715 10.9728 4.02715 17.3114 7.92893 21.2132C11.8307 25.115 18.1693 25.115 22.0711 21.2132C25.9728 17.3114 25.9728 10.9728 22.0711 7.07107ZM15.7688 18.4936C15.7688 18.9142 15.4206 19.2623 15 19.2623C14.7824 19.2623 14.5939 19.1753 14.4561 19.0375C14.3183 18.8997 14.2312 18.7111 14.2312 18.4936L14.2312 14.9109L10.6486 14.9109C10.431 14.9109 10.2424 14.8239 10.1046 14.6861C9.96685 14.5483 9.87982 14.3597 9.87982 14.1421C9.87982 13.7215 10.2279 13.3734 10.6486 13.3734L14.2312 13.3734L14.2312 9.79071C14.2312 9.37007 14.5794 9.02196 15 9.02196C15.4206 9.02196 15.7688 9.37007 15.7688 9.79071L15.7688 13.3734L19.3514 13.3734C19.7721 13.3734 20.1202 13.7215 20.1202 14.1421C20.1202 14.5628 19.7721 14.9109 19.3514 14.9109L15.7688 14.9109L15.7688 18.4936Z" fill="#0F1819"/>
</svg>
