<svg width="16" height="20" viewBox="0 0 16 20" fill="none" xmlns="http://www.w3.org/2000/svg">
<path d="M7.83493 9.74359C10.5255 9.74359 12.7067 7.56241 12.7067 4.87179C12.7067 2.18118 10.5255 0 7.83493 0C5.14431 0 2.96313 2.18118 2.96313 4.87179C2.96313 7.56241 5.14431 9.74359 7.83493 9.74359Z" fill="#41966E"/>
<path d="M15.3631 15.0155C15.1374 12.7385 13.9272 10.7898 12.1733 9.56931C11.0349 10.6257 9.50666 11.2821 7.83487 11.2821C6.16307 11.2821 4.63487 10.6257 3.49641 9.56931C1.74256 10.7898 0.532305 12.7385 0.306664 15.0155L0.00922793 18.0206C-0.0420541 18.5231 0.122048 19.0257 0.46051 19.4052C0.798972 19.7847 1.28102 20.0001 1.79384 20.0001H13.8862C14.3887 20.0001 14.881 19.7847 15.2195 19.4052C15.5579 19.0257 15.722 18.5231 15.6708 18.0206L15.3733 15.0155H15.3631Z" fill="#41966E"/>
</svg>
