<svg width="19" height="20" viewBox="0 0 19 20" fill="none" xmlns="http://www.w3.org/2000/svg">
<path d="M17.9329 5.2721C17.8505 4.43844 17.2124 3.76946 16.3891 3.65625C15.3393 3.51216 14.3204 3.2034 13.3632 2.75055C12.2105 2.20507 11.171 1.45375 10.255 0.517175C9.58604 -0.172392 8.43333 -0.172392 7.76435 0.517175C6.84836 1.45375 5.80886 2.20507 4.65615 2.75055C3.69899 3.2034 2.68008 3.51216 1.63029 3.65625C0.806931 3.76946 0.168825 4.43844 0.0864887 5.2721C-0.129644 7.36138 -0.222272 12.6618 3.41082 16.6345C4.77966 18.1269 6.47784 19.2281 8.45391 19.9074C8.63917 19.9691 8.82443 20 9.00968 20C9.19494 20 9.3802 19.9691 9.56545 19.9074C11.5415 19.2281 13.2397 18.1269 14.6086 16.6345C18.2519 12.6618 18.149 7.37167 17.9329 5.2721ZM12.7148 8.42146L9.62721 12.5383C9.49341 12.7132 9.28757 12.8265 9.06114 12.847C9.04056 12.847 9.01998 12.847 9.00968 12.847C8.80384 12.847 8.60829 12.7647 8.46421 12.6206L6.4058 10.5622C6.10733 10.2637 6.10733 9.76972 6.4058 9.47125C6.70427 9.17278 7.19828 9.17278 7.49675 9.47125L8.92735 10.9018L11.4798 7.49518C11.7371 7.15554 12.2208 7.08349 12.5604 7.3408C12.9001 7.5981 12.9721 8.08182 12.7148 8.42146Z" fill="#41966E"/>
</svg>
