<svg width="16" height="16" viewBox="0 0 16 16" fill="none" xmlns="http://www.w3.org/2000/svg">
<path fill-rule="evenodd" clip-rule="evenodd" d="M5.96562 1.08108C6.96262 -0.314787 9.03721 -0.314787 10.0343 1.08108L10.193 1.3033C10.3685 1.54897 10.6631 1.68051 10.9631 1.64718L11.6706 1.56856C13.263 1.39165 14.6084 2.73707 14.4315 4.32935L14.3529 5.03687C14.3195 5.33691 14.451 5.63153 14.6967 5.807L14.919 5.96574C16.3148 6.96275 16.3148 9.03733 14.919 10.0344L14.6967 10.1932C14.451 10.3686 14.3195 10.6632 14.3529 10.9632L14.4315 11.6707C14.6084 13.2631 13.263 14.6085 11.6706 14.4316L10.9631 14.353C10.6631 14.3197 10.3685 14.4512 10.193 14.6968L10.0343 14.9191C9.03721 16.3149 6.96271 16.3149 5.96562 14.9191L5.80688 14.6968C5.63141 14.4512 5.33679 14.3197 5.03674 14.353L4.32923 14.4316C2.73695 14.6085 1.39152 13.2631 1.56844 11.6707L1.64706 10.9632C1.68039 10.6632 1.54885 10.3686 1.30318 10.1932L1.08096 10.0344C-0.314909 9.03733 -0.314909 6.96283 1.08096 5.96574L1.30318 5.807C1.54885 5.63153 1.68039 5.33691 1.64706 5.03686L1.56844 4.32935C1.39152 2.73707 2.73695 1.39165 4.32923 1.56856L5.03675 1.64718C5.33679 1.68051 5.63141 1.54897 5.80688 1.3033L5.96562 1.08108ZM11.0892 5.74415C11.4146 6.0696 11.4146 6.59725 11.0892 6.92266L7.90679 10.1051C7.49804 10.5139 6.83521 10.5139 6.42646 10.1051L4.9107 8.58933C4.58527 8.26391 4.58527 7.73625 4.9107 7.41083C5.23614 7.08541 5.76377 7.08541 6.08922 7.41083L7.16662 8.48825L9.91071 5.74415C10.2361 5.41872 10.7638 5.41872 11.0892 5.74415Z" fill="#1F7D55"/>
</svg>
