<svg width="16" height="16" viewBox="0 0 16 16" fill="none" xmlns="http://www.w3.org/2000/svg">
<path fill-rule="evenodd" clip-rule="evenodd" d="M5.96566 1.08108C6.96267 -0.314787 9.03725 -0.314787 10.0343 1.08108L10.1931 1.3033C10.3685 1.54897 10.6632 1.68051 10.9632 1.64718L11.6707 1.56856C13.263 1.39165 14.6084 2.73707 14.4315 4.32935L14.3529 5.03687C14.3196 5.33691 14.4511 5.63153 14.6968 5.807L14.919 5.96574C16.3148 6.96275 16.3148 9.03733 14.919 10.0344L14.6968 10.1932C14.4511 10.3686 14.3196 10.6632 14.3529 10.9632L14.4315 11.6707C14.6084 13.2631 13.263 14.6085 11.6707 14.4316L10.9632 14.353C10.6632 14.3197 10.3685 14.4512 10.1931 14.6968L10.0343 14.9191C9.03725 16.3149 6.96275 16.3149 5.96566 14.9191L5.80693 14.6968C5.63145 14.4512 5.33684 14.3197 5.03679 14.353L4.32928 14.4316C2.73699 14.6085 1.39157 13.2631 1.56849 11.6707L1.6471 10.9632C1.68044 10.6632 1.5489 10.3686 1.30323 10.1932L1.081 10.0344C-0.314863 9.03733 -0.314863 6.96283 1.081 5.96574L1.30323 5.807C1.5489 5.63153 1.68044 5.33691 1.6471 5.03686L1.56849 4.32935C1.39157 2.73707 2.73699 1.39165 4.32928 1.56856L5.0368 1.64718C5.33684 1.68051 5.63145 1.54897 5.80693 1.3033L5.96566 1.08108ZM11.0893 5.74415C11.4147 6.0696 11.4147 6.59725 11.0893 6.92266L7.90684 10.1051C7.49809 10.5139 6.83525 10.5139 6.4265 10.1051L4.91074 8.58933C4.58531 8.26391 4.58531 7.73625 4.91074 7.41083C5.23619 7.08541 5.76382 7.08541 6.08926 7.41083L7.16667 8.48825L9.91075 5.74415C10.2362 5.41872 10.7638 5.41872 11.0893 5.74415Z" fill="#C4C4C4"/>
</svg>
