<svg width="20" height="17" viewBox="0 0 20 17" fill="none" xmlns="http://www.w3.org/2000/svg">
<path d="M19.2308 0H0.769231C0.348718 0 0 0.348718 0 0.769231C0 1.18974 0.348718 1.53846 0.769231 1.53846H4.10256V14.1026C4.10256 15.6615 5.3641 16.9231 6.92308 16.9231H13.0769C14.6359 16.9231 15.8974 15.6615 15.8974 14.1026V1.53846H19.2308C19.6513 1.53846 20 1.18974 20 0.769231C20 0.348718 19.6513 0 19.2308 0ZM10 10.7692C8.44103 10.7692 7.17949 9.50769 7.17949 7.94872C7.17949 6.38974 8.44103 5.1282 10 5.1282C11.559 5.1282 12.8205 6.38974 12.8205 7.94872C12.8205 9.50769 11.559 10.7692 10 10.7692Z" fill="#0F1819"/>
<path d="M10 9.23061C10.7081 9.23061 11.2821 8.65661 11.2821 7.94856C11.2821 7.2405 10.7081 6.6665 10 6.6665C9.29195 6.6665 8.71796 7.2405 8.71796 7.94856C8.71796 8.65661 9.29195 9.23061 10 9.23061Z" fill="#0F1819"/>
</svg>
