<svg width="23" height="23" viewBox="0 0 23 23" fill="none" xmlns="http://www.w3.org/2000/svg">
<path d="M1.08301 11.5002C1.08301 17.2531 5.74671 21.9168 11.4997 21.9168C13.2256 21.9168 14.6247 20.5177 14.6247 18.7918V18.271C14.6247 17.7872 14.6247 17.5453 14.6514 17.3423C14.836 15.94 15.9395 14.8365 17.3418 14.6519C17.5449 14.6252 17.7867 14.6252 18.2705 14.6252H18.7913C20.5172 14.6252 21.9163 13.2261 21.9163 11.5002C21.9163 5.7472 17.2526 1.0835 11.4997 1.0835C5.74671 1.0835 1.08301 5.7472 1.08301 11.5002Z" stroke="#B8C6E5" stroke-width="2" stroke-linecap="round" stroke-linejoin="round"/>
<path d="M6.29134 12.5418C6.86664 12.5418 7.33301 12.0755 7.33301 11.5002C7.33301 10.9249 6.86664 10.4585 6.29134 10.4585C5.71604 10.4585 5.24967 10.9249 5.24967 11.5002C5.24967 12.0755 5.71604 12.5418 6.29134 12.5418Z" stroke="#B8C6E5" stroke-width="2" stroke-linecap="round" stroke-linejoin="round"/>
<path d="M15.6663 8.37516C16.2416 8.37516 16.708 7.90879 16.708 7.3335C16.708 6.7582 16.2416 6.29183 15.6663 6.29183C15.091 6.29183 14.6247 6.7582 14.6247 7.3335C14.6247 7.90879 15.091 8.37516 15.6663 8.37516Z" stroke="#B8C6E5" stroke-width="2" stroke-linecap="round" stroke-linejoin="round"/>
<path d="M9.41634 7.3335C9.99164 7.3335 10.458 6.86713 10.458 6.29183C10.458 5.71653 9.99164 5.25016 9.41634 5.25016C8.84104 5.25016 8.37467 5.71653 8.37467 6.29183C8.37467 6.86713 8.84104 7.3335 9.41634 7.3335Z" stroke="#B8C6E5" stroke-width="2" stroke-linecap="round" stroke-linejoin="round"/>
</svg>
