<svg width="19" height="23" viewBox="0 0 19 23" fill="none" xmlns="http://www.w3.org/2000/svg">
<path d="M11.5834 10.458H5.33342M7.41675 14.6247H5.33342M13.6667 6.29134H5.33342M17.8334 6.08301V16.9163C17.8334 18.6665 17.8334 19.5416 17.4928 20.2101C17.1932 20.7981 16.7151 21.2761 16.1271 21.5757C15.4587 21.9163 14.5836 21.9163 12.8334 21.9163H6.16675C4.41658 21.9163 3.5415 21.9163 2.87303 21.5757C2.28502 21.2761 1.80696 20.7981 1.50735 20.2101C1.16675 19.5416 1.16675 18.6665 1.16675 16.9163V6.08301C1.16675 4.33284 1.16675 3.45776 1.50735 2.78929C1.80696 2.20128 2.28502 1.72322 2.87303 1.42361C3.5415 1.08301 4.41658 1.08301 6.16675 1.08301H12.8334C14.5836 1.08301 15.4587 1.08301 16.1271 1.42361C16.7151 1.72322 17.1932 2.20128 17.4928 2.78929C17.8334 3.45776 17.8334 4.33284 17.8334 6.08301Z" stroke="#B8C6E5" stroke-width="2" stroke-linecap="round" stroke-linejoin="round"/>
</svg>
