<svg width="21" height="22" viewBox="0 0 21 22" fill="none" xmlns="http://www.w3.org/2000/svg">
<path d="M6.4646 13.5833C6.92715 15.3805 8.5585 16.7083 10.5 16.7083C12.4415 16.7083 14.0729 15.3805 14.5354 13.5833M9.47677 1.8792L2.41186 7.37412C1.93961 7.74143 1.70348 7.92509 1.53336 8.15509C1.38267 8.35883 1.27042 8.58835 1.20211 8.83238C1.125 9.10786 1.125 9.40701 1.125 10.0053V17.5417C1.125 18.7085 1.125 19.2918 1.35207 19.7375C1.55181 20.1295 1.87052 20.4482 2.26252 20.6479C2.70817 20.875 3.29156 20.875 4.45833 20.875H16.5417C17.7084 20.875 18.2918 20.875 18.7375 20.6479C19.1295 20.4482 19.4482 20.1295 19.6479 19.7375C19.875 19.2918 19.875 18.7085 19.875 17.5417V10.0053C19.875 9.40701 19.875 9.10786 19.7979 8.83238C19.7296 8.58835 19.6173 8.35883 19.4666 8.15509C19.2965 7.92509 19.0604 7.74143 18.5881 7.37412L11.5232 1.8792C11.1573 1.59456 10.9743 1.45224 10.7722 1.39753C10.594 1.34926 10.406 1.34926 10.2278 1.39753C10.0257 1.45224 9.84273 1.59456 9.47677 1.8792Z" stroke="#B8C6E5" stroke-width="2" stroke-linecap="round" stroke-linejoin="round"/>
</svg>
