<svg width="20" height="19" viewBox="0 0 20 19" fill="none" xmlns="http://www.w3.org/2000/svg">
<path d="M10.7692 11.7745V13.0771C10.7692 13.4976 10.4205 13.8463 10 13.8463C9.57949 13.8463 9.23077 13.4976 9.23077 13.0771V11.7745C6.20513 11.6719 3.17949 10.954 0.441026 9.67194C0.410257 9.66169 0.379487 9.64117 0.348718 9.62066L0 9.39502V16.154C0 17.713 1.26154 18.9745 2.82051 18.9745H17.1795C18.7385 18.9745 20 17.713 20 16.154V9.40528L19.641 9.63092C16.8308 10.954 13.7949 11.6719 10.7692 11.7745Z" fill="black"/>
<path d="M17.1795 4.10256H14.8718V2.82051C14.8718 1.26154 13.6103 0 12.0513 0H7.94872C6.38974 0 5.12821 1.26154 5.12821 2.82051V4.10256H2.82051C1.26154 4.10256 0 5.3641 0 6.92308V7.55897L1.13846 8.29744C3.66154 9.46667 6.43077 10.1026 9.23077 10.1949V8.97436C9.23077 8.55385 9.57949 8.20513 10 8.20513C10.4205 8.20513 10.7692 8.55385 10.7692 8.97436V10.1949C13.5795 10.0923 16.3692 9.45641 18.9026 8.27692L20 7.58974V6.92308C20 5.3641 18.7385 4.10256 17.1795 4.10256ZM6.66667 4.10256V2.82051C6.66667 2.11282 7.24103 1.53846 7.94872 1.53846H12.0513C12.759 1.53846 13.3333 2.11282 13.3333 2.82051V4.10256H6.66667Z" fill="black"/>
</svg>
