<svg width="20" height="19" viewBox="0 0 20 19" fill="none" xmlns="http://www.w3.org/2000/svg">
<path d="M17.1795 4.10256H14.8718V2.82051C14.8718 1.26154 13.6103 0 12.0513 0H7.94872C6.38974 0 5.12821 1.26154 5.12821 2.82051V4.10256H2.82051C1.26154 4.10256 0 5.3641 0 6.92308V16.1538C0 17.7128 1.26154 18.9744 2.82051 18.9744H17.1795C18.7385 18.9744 20 17.7128 20 16.1538V6.92308C20 5.3641 18.7385 4.10256 17.1795 4.10256ZM6.66667 2.82051C6.66667 2.11282 7.24103 1.53846 7.94872 1.53846H12.0513C12.759 1.53846 13.3333 2.11282 13.3333 2.82051V4.10256H6.66667V2.82051ZM2.82051 5.64103H17.1795C17.8872 5.64103 18.4615 6.21538 18.4615 6.92308V8.4718C16.041 9.52821 13.4154 10.1128 10.7692 10.2051V8.98462C10.7692 8.5641 10.4205 8.21539 10 8.21539C9.57949 8.21539 9.23077 8.5641 9.23077 8.98462V10.2051C6.58462 10.1128 3.95897 9.53846 1.53846 8.4718V6.92308C1.53846 6.21538 2.11282 5.64103 2.82051 5.64103ZM17.1795 17.4359H2.82051C2.11282 17.4359 1.53846 16.8615 1.53846 16.1538V10.1436C3.97949 11.1282 6.60513 11.6821 9.23077 11.7744V13.0769C9.23077 13.4974 9.57949 13.8462 10 13.8462C10.4205 13.8462 10.7692 13.4974 10.7692 13.0769V11.7744C13.3949 11.6821 16.0205 11.1282 18.4615 10.1436V16.1538C18.4615 16.8615 17.8872 17.4359 17.1795 17.4359Z" fill="#7B7B7B"/>
</svg>
