<svg width="21" height="20" viewBox="0 0 21 20" fill="none" xmlns="http://www.w3.org/2000/svg">
<path d="M19.0387 14.2436L13.7371 8.942C13.303 8.50795 13.055 7.90854 13.055 7.2988V6.94742C13.055 5.9243 12.6416 4.93218 11.9182 4.20876L8.07371 0.364294C7.58799 -0.121431 6.73022 -0.121431 6.24449 0.364294L4.78731 1.82147C4.28092 2.32786 4.28092 3.1443 4.78731 3.65069L7.52598 6.38936L6.43051 7.48482L3.69185 4.74616C3.20612 4.26043 2.34835 4.26043 1.86263 4.74616L0.405451 6.20333C0.157421 6.45136 0.0230713 6.77174 0.0230713 7.11278C0.0230713 7.45382 0.157421 7.78452 0.405451 8.02222L4.24992 11.8667C4.98367 12.6004 5.95512 13.0035 6.98858 13.0035H7.33996C7.96003 13.0035 8.5491 13.2412 8.98315 13.6856L14.2848 18.9872C14.9152 19.6176 15.7626 19.969 16.6617 19.969C17.5609 19.969 18.398 19.6176 19.0387 18.9872C20.3512 17.6747 20.3512 15.5458 19.0387 14.2333V14.2436Z" fill="black"/>
</svg>
