<svg width="20" height="20" viewBox="0 0 20 20" fill="none" xmlns="http://www.w3.org/2000/svg">
<path d="M19.0156 14.2436L13.714 8.942C13.2799 8.50795 13.0319 7.90854 13.0319 7.2988V6.94742C13.0319 5.9243 12.6185 4.93218 11.8951 4.20876L8.05064 0.364294C7.56491 -0.121431 6.70714 -0.121431 6.22142 0.364294L4.76424 1.82147C4.25785 2.32786 4.25785 3.1443 4.76424 3.65069L7.50291 6.38936L6.40744 7.48482L3.66878 4.74616C3.18305 4.26043 2.32528 4.26043 1.83956 4.74616L0.382379 6.20333C0.134349 6.45136 0 6.77174 0 7.11278C0 7.45382 0.134349 7.78452 0.382379 8.02222L4.22684 11.8667C4.9606 12.6004 5.93205 13.0035 6.96551 13.0035H7.31688C7.93696 13.0035 8.52603 13.2412 8.96008 13.6856L14.2617 18.9872C14.8921 19.6176 15.7396 19.969 16.6387 19.969C17.5378 19.969 18.3749 19.6176 19.0156 18.9872C20.3281 17.6747 20.3281 15.5458 19.0156 14.2333V14.2436ZM17.9202 17.9021C17.2381 18.5842 16.0496 18.5842 15.3572 17.9021L10.0555 12.6004C9.32179 11.8667 8.35034 11.4636 7.31688 11.4636H6.96551C6.34543 11.4636 5.75636 11.2259 5.32231 10.7816L1.66387 7.12311L2.75933 6.02765L5.498 8.76631C5.98372 9.25204 6.84149 9.25204 7.32722 8.76631L8.7844 7.30913C9.03242 7.0611 9.16677 6.74073 9.16677 6.39969C9.16677 6.05865 9.03242 5.72794 8.7844 5.49025L6.04573 2.75158L7.1412 1.65612L10.7996 5.31456C11.2337 5.74861 11.4817 6.34802 11.4817 6.95776V7.30913C11.4817 8.33226 11.8951 9.32438 12.6185 10.0478L17.9202 15.3494C18.6229 16.0522 18.6229 17.1993 17.9202 17.9021Z" fill="#7B7B7B"/>
</svg>
