<svg width="23" height="19" viewBox="0 0 23 19" fill="none" xmlns="http://www.w3.org/2000/svg">
<path d="M19.8333 6.89616V4.50033C19.8333 3.33355 19.8333 2.75016 19.6062 2.30451C19.4064 1.91251 19.0877 1.5938 18.6957 1.39406C18.2501 1.167 17.6667 1.16699 16.4999 1.16699H4.41659C3.24981 1.16699 2.66642 1.16699 2.22077 1.39406C1.82877 1.5938 1.51006 1.91251 1.31032 2.30451C1.08325 2.75016 1.08325 3.33355 1.08325 4.50033V14.5003C1.08325 15.6671 1.08325 16.2505 1.31032 16.6961C1.51006 17.0881 1.82877 17.4069 2.22077 17.6066C2.66642 17.8337 3.24981 17.8337 4.41658 17.8337L16.4999 17.8337C17.6667 17.8337 18.2501 17.8337 18.6957 17.6066C19.0877 17.4069 19.4064 17.0881 19.6062 16.6961C19.8333 16.2505 19.8333 15.6671 19.8333 14.5003V12.1045M14.6249 9.50033C14.6249 9.01631 14.6249 8.7743 14.6649 8.57306C14.8293 7.74662 15.4754 7.10058 16.3018 6.93619C16.5031 6.89616 16.7451 6.89616 17.2291 6.89616H19.3124C19.7964 6.89616 20.0384 6.89616 20.2397 6.93619C21.0661 7.10058 21.7122 7.74662 21.8766 8.57306C21.9166 8.7743 21.9166 9.01631 21.9166 9.50033C21.9166 9.98434 21.9166 10.2263 21.8766 10.4276C21.7122 11.254 21.0661 11.9001 20.2397 12.0645C20.0384 12.1045 19.7964 12.1045 19.3124 12.1045H17.2291C16.7451 12.1045 16.5031 12.1045 16.3018 12.0645C15.4754 11.9001 14.8293 11.254 14.6649 10.4276C14.6249 10.2263 14.6249 9.98434 14.6249 9.50033Z" stroke="#B8C6E5" stroke-width="2" stroke-linecap="round" stroke-linejoin="round"/>
</svg>
