<svg width="24" height="24" viewBox="0 0 24 24" fill="none" xmlns="http://www.w3.org/2000/svg">
<path fill-rule="evenodd" clip-rule="evenodd" d="M15.8546 20.7292C16.1592 20.75 16.5303 20.75 16.9747 20.75L17.0252 20.75C17.4697 20.75 17.8408 20.75 18.1454 20.7292C18.4625 20.7076 18.762 20.661 19.0524 20.5407C19.7262 20.2616 20.2616 19.7262 20.5407 19.0524C20.661 18.762 20.7076 18.4625 20.7292 18.1454C20.75 17.8408 20.75 17.4697 20.75 17.0253L20.75 16.9747C20.75 16.5303 20.75 16.1592 20.7292 15.8546C20.7076 15.5375 20.661 15.238 20.5407 14.9476C20.2616 14.2738 19.7262 13.7384 19.0524 13.4593C18.762 13.339 18.4625 13.2924 18.1454 13.2708C17.8408 13.25 17.4697 13.25 17.0253 13.25L16.9747 13.25C16.5303 13.25 16.1592 13.25 15.8546 13.2708C15.5375 13.2924 15.238 13.339 14.9476 13.4593C14.2738 13.7384 13.7384 14.2738 13.4593 14.9476C13.339 15.238 13.2924 15.5375 13.2708 15.8546C13.25 16.1592 13.25 16.5303 13.25 16.9747L13.25 17.0253C13.25 17.4697 13.25 17.8408 13.2708 18.1454C13.2924 18.4625 13.339 18.762 13.4593 19.0524C13.7384 19.7262 14.2738 20.2616 14.9476 20.5407C15.238 20.661 15.5375 20.7076 15.8546 20.7292ZM18.4784 19.1548C18.4012 19.1868 18.284 19.2163 18.0433 19.2327C17.7958 19.2496 17.4762 19.25 17 19.25C16.5238 19.25 16.2042 19.2496 15.9567 19.2327C15.716 19.2163 15.5988 19.1868 15.5216 19.1548C15.2154 19.028 14.972 18.7846 14.8451 18.4784C14.8132 18.4012 14.7837 18.284 14.7673 18.0433C14.7504 17.7958 14.75 17.4762 14.75 17C14.75 16.5238 14.7504 16.2042 14.7673 15.9567C14.7837 15.716 14.8132 15.5988 14.8451 15.5216C14.972 15.2154 15.2154 14.972 15.5216 14.8451C15.5988 14.8132 15.716 14.7837 15.9567 14.7673C16.2042 14.7504 16.5238 14.75 17 14.75C17.4762 14.75 17.7958 14.7504 18.0433 14.7673C18.284 14.7837 18.4012 14.8132 18.4784 14.8451C18.7846 14.972 19.028 15.2154 19.1548 15.5216C19.1868 15.5988 19.2163 15.716 19.2327 15.9567C19.2496 16.2042 19.25 16.5238 19.25 17C19.25 17.4762 19.2496 17.7958 19.2327 18.0433C19.2163 18.284 19.1868 18.4012 19.1548 18.4784C19.028 18.7846 18.7846 19.028 18.4784 19.1548Z" fill="#756EF3"/>
<path d="M6.25 20C6.25 20.4142 6.58579 20.75 7 20.75C7.41421 20.75 7.75 20.4142 7.75 20L7.75 17.75L10 17.75C10.4142 17.75 10.75 17.4142 10.75 17C10.75 16.5858 10.4142 16.25 10 16.25L7.75 16.25L7.75 14C7.75 13.5858 7.41421 13.25 7 13.25C6.58579 13.25 6.25 13.5858 6.25 14L6.25 16.25L4 16.25C3.58579 16.25 3.25 16.5858 3.25 17C3.25 17.4142 3.58579 17.75 4 17.75L6.25 17.75L6.25 20Z" fill="#756EF3"/>
<path fill-rule="evenodd" clip-rule="evenodd" d="M15.8546 10.7292C16.1592 10.75 16.5303 10.75 16.9747 10.75L17.0253 10.75C17.4697 10.75 17.8408 10.75 18.1454 10.7292C18.4625 10.7076 18.762 10.661 19.0524 10.5407C19.7262 10.2616 20.2616 9.7262 20.5407 9.05238C20.661 8.76199 20.7076 8.46246 20.7292 8.14536C20.75 7.84075 20.75 7.46972 20.75 7.02526L20.75 6.97475C20.75 6.53029 20.75 6.15924 20.7292 5.85463C20.7076 5.53753 20.661 5.23801 20.5407 4.94762C20.2616 4.27379 19.7262 3.73844 19.0524 3.45933C18.762 3.33905 18.4625 3.29241 18.1454 3.27077C17.8408 3.24999 17.4697 3.24999 17.0253 3.25L16.9747 3.25C16.5303 3.24999 16.1592 3.24999 15.8546 3.27077C15.5375 3.29241 15.238 3.33905 14.9476 3.45933C14.2738 3.73844 13.7384 4.27379 13.4593 4.94762C13.339 5.23801 13.2924 5.53753 13.2708 5.85463C13.25 6.15924 13.25 6.53028 13.25 6.97474L13.25 7.02526C13.25 7.46972 13.25 7.84075 13.2708 8.14536C13.2924 8.46246 13.339 8.76199 13.4593 9.05238C13.7384 9.7262 14.2738 10.2616 14.9476 10.5407C15.238 10.661 15.5375 10.7076 15.8546 10.7292ZM18.4784 9.15485C18.4012 9.18681 18.284 9.21628 18.0433 9.23271C17.7958 9.24959 17.4762 9.25 17 9.25C16.5238 9.25 16.2042 9.24959 15.9567 9.23271C15.716 9.21628 15.5988 9.18681 15.5216 9.15485C15.2154 9.02798 14.972 8.78464 14.8452 8.47835C14.8132 8.4012 14.7837 8.28398 14.7673 8.04326C14.7504 7.79579 14.75 7.4762 14.75 7C14.75 6.5238 14.7504 6.2042 14.7673 5.95674C14.7837 5.71601 14.8132 5.5988 14.8452 5.52165C14.972 5.21536 15.2154 4.97202 15.5216 4.84515C15.5988 4.81319 15.716 4.78371 15.9567 4.76729C16.2042 4.7504 16.5238 4.75 17 4.75C17.4762 4.75 17.7958 4.75041 18.0433 4.76729C18.284 4.78371 18.4012 4.81319 18.4784 4.84515C18.7846 4.97202 19.028 5.21536 19.1548 5.52165C19.1868 5.5988 19.2163 5.71601 19.2327 5.95674C19.2496 6.2042 19.25 6.5238 19.25 7C19.25 7.4762 19.2496 7.79579 19.2327 8.04326C19.2163 8.28398 19.1868 8.4012 19.1548 8.47835C19.028 8.78464 18.7846 9.02798 18.4784 9.15485Z" fill="#756EF3"/>
<path fill-rule="evenodd" clip-rule="evenodd" d="M5.85464 10.7292C6.15925 10.75 6.53028 10.75 6.97474 10.75L7.02526 10.75C7.46972 10.75 7.84075 10.75 8.14536 10.7292C8.46246 10.7076 8.76199 10.6609 9.05238 10.5407C9.72621 10.2616 10.2616 9.7262 10.5407 9.05238C10.661 8.76199 10.7076 8.46246 10.7292 8.14536C10.75 7.84075 10.75 7.46972 10.75 7.02526L10.75 6.97474C10.75 6.53028 10.75 6.15924 10.7292 5.85463C10.7076 5.53753 10.661 5.23801 10.5407 4.94762C10.2616 4.27379 9.72621 3.73844 9.05238 3.45933C8.76199 3.33905 8.46246 3.29241 8.14537 3.27077C7.84075 3.24999 7.46972 3.24999 7.02526 3.25L6.97474 3.25C6.53028 3.24999 6.15925 3.24999 5.85464 3.27077C5.53754 3.2924 5.23801 3.33905 4.94762 3.45933C4.27379 3.73844 3.73844 4.27379 3.45933 4.94762C3.33905 5.23801 3.29241 5.53753 3.27077 5.85463C3.24999 6.15924 3.24999 6.53028 3.25 6.97474L3.25 7.02526C3.24999 7.46971 3.24999 7.84075 3.27077 8.14536C3.29241 8.46246 3.33905 8.76199 3.45933 9.05238C3.73844 9.7262 4.27379 10.2616 4.94762 10.5407C5.23801 10.6609 5.53754 10.7076 5.85464 10.7292ZM8.47835 9.15485C8.4012 9.18681 8.28399 9.21628 8.04326 9.23271C7.79579 9.24959 7.4762 9.25 7 9.25C6.5238 9.25 6.20421 9.24959 5.95674 9.23271C5.71601 9.21628 5.5988 9.18681 5.52165 9.15485C5.21536 9.02798 4.97202 8.78464 4.84515 8.47835C4.81319 8.4012 4.78372 8.28398 4.76729 8.04326C4.75041 7.79579 4.75 7.4762 4.75 7C4.75 6.52379 4.75041 6.2042 4.76729 5.95674C4.78372 5.71601 4.81319 5.5988 4.84515 5.52164C4.97202 5.21536 5.21536 4.97202 5.52165 4.84515C5.5988 4.81319 5.71602 4.78371 5.95674 4.76729C6.20421 4.7504 6.5238 4.75 7 4.75C7.4762 4.75 7.79579 4.7504 8.04326 4.76729C8.28399 4.78371 8.4012 4.81319 8.47835 4.84515C8.78464 4.97202 9.02798 5.21536 9.15485 5.52164C9.18681 5.5988 9.21629 5.71601 9.23271 5.95674C9.24959 6.2042 9.25 6.5238 9.25 7C9.25 7.4762 9.24959 7.79579 9.23271 8.04326C9.21628 8.28398 9.18681 8.4012 9.15485 8.47835C9.02798 8.78464 8.78464 9.02798 8.47835 9.15485Z" fill="#756EF3"/>
</svg>
