<svg width="35" height="36" viewBox="0 0 35 36" fill="none" xmlns="http://www.w3.org/2000/svg">
<path fill="none"  opacity="0.5" d="M4.62553 27.958C6.33409 29.6666 9.08393 29.6666 14.5837 29.6666H17.5003L21.8753 29.6653C26.417 29.652 28.8247 29.5084 30.3751 27.958C32.0837 26.2496 32.0837 23.4996 32.0837 17.9999C32.0837 12.5002 32.0837 9.75035 30.3751 8.04179C28.8247 6.49145 26.417 6.34789 21.8753 6.33461L17.5003 6.33325H14.5837C9.08393 6.33325 6.33409 6.33325 4.62553 8.04179C2.91699 9.75035 2.91699 12.5002 2.91699 17.9999C2.91699 23.4996 2.91699 26.2496 4.62553 27.958Z" stroke="#5D55E0" stroke-width="2.1875" stroke-linecap="round"/>
<path  d="M13.1247 18.0001C13.1247 18.8055 12.4717 19.4584 11.6663 19.4584C10.8609 19.4584 10.208 18.8055 10.208 18.0001C10.208 17.1946 10.8609 16.5417 11.6663 16.5417C12.4717 16.5417 13.1247 17.1946 13.1247 18.0001Z" fill="#5D55E0"/>
<path  d="M18.9577 18.0001C18.9577 18.8055 18.3048 19.4584 17.4993 19.4584C16.6939 19.4584 16.041 18.8055 16.041 18.0001C16.041 17.1946 16.6939 16.5417 17.4993 16.5417C18.3048 16.5417 18.9577 17.1946 18.9577 18.0001Z" fill="#5D55E0"/>
<path fill="none"  d="M21.875 3.41675V32.5834" stroke="#5D55E0" stroke-width="2.1875" stroke-linecap="round"/>
</svg>
