<svg  width="20" height="20" viewBox="0 0 20 20" fill="none" xmlns="http://www.w3.org/2000/svg">
<path fill="none"  d="M17.8959 2.4375L13.4792 6.85418M13.4792 6.85418V3.54167M13.4792 6.85418H16.7918" stroke="#5D55E0" stroke-linecap="round" stroke-linejoin="round"/>
<path fill="none"  opacity="0.5" d="M7.9998 2.78653L8.7164 4.0706C9.36312 5.22941 9.10353 6.74956 8.08493 7.76814C8.08493 7.76814 6.84956 9.00371 9.0895 11.2437C11.3288 13.483 12.5651 12.2483 12.5651 12.2483C13.5837 11.2297 15.1038 10.9701 16.2626 11.6168L17.5467 12.3334C19.2966 13.31 19.5032 15.7639 17.9652 17.302C17.041 18.2262 15.9088 18.9453 14.6572 18.9927C12.5503 19.0726 8.97224 18.5394 5.38302 14.9502C1.79384 11.361 1.26061 7.78296 1.34049 5.67606C1.38793 4.42449 2.10706 3.29231 3.03126 2.36811C4.56931 0.830059 7.02324 1.03672 7.9998 2.78653Z" stroke="#5D55E0" stroke-linecap="round"/>
</svg>
