<svg width="18" height="19" viewBox="0 0 18 19" fill="none" xmlns="http://www.w3.org/2000/svg">
<path fill="none" d="M14.9992 7.60267V6.99923C14.9992 3.68595 12.3133 1 9 1C5.68672 1 3.00077 3.68595 3.00077 6.99923V7.60267C3.00077 8.32685 2.78641 9.03483 2.38471 9.63739L1.40032 11.114C0.501176 12.4627 1.1876 14.2959 2.75143 14.7224C6.84244 15.8382 11.1576 15.8382 15.2486 14.7224C16.8124 14.2959 17.4988 12.4627 16.5997 11.114L15.6153 9.63739C15.2136 9.03483 14.9992 8.32685 14.9992 7.60267Z" stroke="#231F20" stroke-width="1.5"/>
<path d="M5.14331 15.5695C5.70469 17.0674 7.21943 18.1406 8.99996 18.1406C10.7805 18.1406 12.2952 17.0674 12.8566 15.5695" stroke="#231F20" stroke-width="1.5" stroke-linecap="round"/>
</svg>
