<svg width="19" height="20" viewBox="0 0 19 20" fill="none" xmlns="http://www.w3.org/2000/svg">
<path fill="none"  opacity="0.5" d="M13.9908 0.555908H5.00919C3.91469 0.555908 3.36745 0.555908 2.92609 0.709484C2.08915 1.0007 1.43206 1.67714 1.14917 2.53873C1 2.99309 1 3.55646 1 4.68319V17.9093C1 18.7198 1.93028 19.1499 2.51876 18.6114C2.86449 18.295 3.38551 18.295 3.73124 18.6114L4.1875 19.029C4.79345 19.5834 5.70655 19.5834 6.3125 19.029C6.91845 18.4745 7.83154 18.4745 8.4375 19.029C9.04346 19.5834 9.95654 19.5834 10.5625 19.029C11.1685 18.4745 12.0815 18.4745 12.6875 19.029C13.2935 19.5834 14.2065 19.5834 14.8125 19.029L15.2688 18.6114C15.6145 18.295 16.1355 18.295 16.4812 18.6114C17.0697 19.1499 18 18.7198 18 17.9093V4.68319C18 3.55646 18 2.99309 17.8508 2.53873C17.5679 1.67714 16.9109 1.0007 16.0739 0.709484C15.6326 0.555908 15.0853 0.555908 13.9908 0.555908Z" stroke="#5D55E0"/>
<path fill="none"  d="M7.13892 8.48932L8.48815 10.0004L11.8611 6.22266" stroke="#5D55E0" stroke-linecap="round" stroke-linejoin="round"/>
<path fill="none"  d="M5.25 13.3059H13.75" stroke="#5D55E0" stroke-linecap="round"/>
</svg>
