<svg width="31" height="31" viewBox="0 0 31 31" fill="none" xmlns="http://www.w3.org/2000/svg">
<path d="M9.64778 4.23206C11.5093 3.13155 13.6809 2.5 16 2.5C22.9035 2.5 28.5 8.09644 28.5 15C28.5 15.0414 28.4998 15.0827 28.4994 15.1241M5.22642 8.65731C4.1294 10.5167 3.5 12.6849 3.5 15C3.5 20.8245 7.48366 25.7185 12.875 27.1062M26.8845 21.1507C25.234 24.0652 22.4467 26.2512 19.125 27.1062M18.6116 7.96722C17.7984 7.66509 16.9185 7.5 16 7.5C11.8579 7.5 8.5 10.8579 8.5 15C8.5 15.9234 8.66689 16.8079 8.97215 17.6249M23.0314 12.3846C23.3344 13.1989 23.5 14.0801 23.5 15C23.5 19.1421 20.1421 22.5 16 22.5C15.0876 22.5 14.2134 22.3371 13.4047 22.0387M16 12.5V17.5" stroke="#756EF3" stroke-width="2" stroke-linecap="round" stroke-linejoin="round"/>
</svg>
