<svg width="32" height="32" viewBox="0 0 32 32" fill="none" xmlns="http://www.w3.org/2000/svg">
<path fill="none" d="M12.6665 29.3333C18.1894 29.3333 22.6665 24.8561 22.6665 19.3333C22.6665 13.8104 18.1894 9.33325 12.6665 9.33325C7.14366 9.33325 2.6665 13.8104 2.6665 19.3333C2.6665 24.8561 7.14366 29.3333 12.6665 29.3333Z" stroke="#756EF3" stroke-width="1.64706"/>
<path fill="none" opacity="0.5" d="M13.3335 21.3333H16.0002" stroke="#756EF3" stroke-width="1.64706" stroke-linecap="round"/>
<path  opacity="0.5" d="M18.6667 16.6667C18.6667 17.7713 18.0697 18.6667 17.3333 18.6667C16.5969 18.6667 16 17.7713 16 16.6667C16 15.5622 16.5969 14.6667 17.3333 14.6667C18.0697 14.6667 18.6667 15.5622 18.6667 16.6667Z" fill="#756EF3"/>
<path  opacity="0.5" d="M11.9998 18.6667C12.7362 18.6667 13.3332 17.7713 13.3332 16.6667C13.3332 15.5622 12.7362 14.6667 11.9998 14.6667C11.2635 14.6667 10.6665 15.5622 10.6665 16.6667C10.6665 17.7713 11.2635 18.6667 11.9998 18.6667Z" fill="#756EF3"/>
<path  opacity="0.5" d="M22.6667 9.33325L20 11.9999" stroke="#756EF3" stroke-width="1.64706" stroke-linecap="round"/>
<path fill="none" d="M23.9748 3.13763C24.2224 2.50979 25.1109 2.50979 25.3585 3.13763L26.231 5.34997C26.3066 5.54165 26.4584 5.69339 26.6501 5.76899L28.8624 6.64152C29.4902 6.88913 29.4902 7.77769 28.8624 8.02531L26.6501 8.89784C26.4584 8.97344 26.3066 9.12517 26.231 9.31685L25.3585 11.5292C25.1109 12.157 24.2224 12.157 23.9748 11.5292L23.1022 9.31685C23.0266 9.12517 22.8749 8.97344 22.6832 8.89784L20.4709 8.02531C19.843 7.77769 19.843 6.88913 20.4709 6.64152L22.6832 5.76899C22.8749 5.69339 23.0266 5.54165 23.1022 5.34997L23.9748 3.13763Z" stroke="#756EF3" stroke-width="1.64706"/>
</svg>
