<svg width="33" height="32" viewBox="0 0 33 32" fill="none" xmlns="http://www.w3.org/2000/svg">
<path fill="none" d="M6 10.6665C6 6.89526 6 5.00965 7.17157 3.83808C8.34315 2.6665 10.2288 2.6665 14 2.6665H19.3333C23.1045 2.6665 24.9901 2.6665 26.1617 3.83808C27.3333 5.00965 27.3333 6.89526 27.3333 10.6665V21.3332C27.3333 25.1044 27.3333 26.99 26.1617 28.1616C24.9901 29.3332 23.1045 29.3332 19.3333 29.3332H14C10.2288 29.3332 8.34315 29.3332 7.17157 28.1616C6 26.99 6 25.1044 6 21.3332V10.6665Z" stroke="#CBDB31" stroke-width="2"/>
<path fill="none" d="M27.1971 21.3335H11.197C9.95708 21.3335 9.33709 21.3335 8.82843 21.4698C7.44805 21.8396 6.36987 22.9179 6 24.2982" stroke="#CBDB31" stroke-width="2"/>
<path fill="none" opacity="0.5" d="M11.3335 9.3335H22.0002" stroke="#CBDB31" stroke-width="2" stroke-linecap="round"/>
<path fill="none" opacity="0.5" d="M11.3335 14H18.0002" stroke="#CBDB31" stroke-width="2" stroke-linecap="round"/>
<path fill="none" opacity="0.5" d="M26.6668 25.3335H11.3335" stroke="#CBDB31" stroke-width="2" stroke-linecap="round"/>
</svg>
