<svg width="32" height="32" viewBox="0 0 32 32" fill="none" xmlns="http://www.w3.org/2000/svg">
<path fill="none" d="M5.33325 10.6665C5.33325 6.89526 5.33325 5.00965 6.50483 3.83808C7.6764 2.6665 9.56201 2.6665 13.3333 2.6665H18.6666C22.4378 2.6665 24.3234 2.6665 25.495 3.83808C26.6666 5.00965 26.6666 6.89526 26.6666 10.6665V21.3332C26.6666 25.1044 26.6666 26.99 25.495 28.1616C24.3234 29.3332 22.4378 29.3332 18.6666 29.3332H13.3333C9.56201 29.3332 7.6764 29.3332 6.50483 28.1616C5.33325 26.99 5.33325 25.1044 5.33325 21.3332V10.6665Z" stroke="#FF6D00" stroke-width="2"/>
<path fill="none" d="M26.5303 21.3335H10.5303C9.29033 21.3335 8.67034 21.3335 8.16168 21.4698C6.7813 21.8396 5.70312 22.9179 5.33325 24.2982" stroke="#FF6D00" stroke-width="2"/>
<path fill="none" opacity="0.5" d="M10.6667 9.3335H21.3334" stroke="#FF6D00" stroke-width="2" stroke-linecap="round"/>
<path fill="none" opacity="0.5" d="M10.6667 14H17.3334" stroke="#FF6D00" stroke-width="2" stroke-linecap="round"/>
<path fill="none" opacity="0.5" d="M26.0001 25.3335H10.6667" stroke="#FF6D00" stroke-width="2" stroke-linecap="round"/>
</svg>
