<svg width="33" height="32" viewBox="0 0 33 32" fill="none" xmlns="http://www.w3.org/2000/svg">
<path fill="none" d="M5.6665 10.6665C5.6665 6.89526 5.6665 5.00965 6.83808 3.83808C8.00965 2.6665 9.89526 2.6665 13.6665 2.6665H18.9998C22.771 2.6665 24.6566 2.6665 25.8282 3.83808C26.9998 5.00965 26.9998 6.89526 26.9998 10.6665V21.3332C26.9998 25.1044 26.9998 26.99 25.8282 28.1616C24.6566 29.3332 22.771 29.3332 18.9998 29.3332H13.6665C9.89526 29.3332 8.00965 29.3332 6.83808 28.1616C5.6665 26.99 5.6665 25.1044 5.6665 21.3332V10.6665Z" stroke="#F2994A" stroke-width="2"/>
<path fill="none" d="M26.8636 21.3335H10.8635C9.62358 21.3335 9.0036 21.3335 8.49493 21.4698C7.11456 21.8396 6.03637 22.9179 5.6665 24.2982" stroke="#F2994A" stroke-width="2"/>
<path fill="none" opacity="0.5" d="M11 9.3335H21.6667" stroke="#F2994A" stroke-width="2" stroke-linecap="round"/>
<path fill="none" opacity="0.5" d="M11 14H17.6667" stroke="#F2994A" stroke-width="2" stroke-linecap="round"/>
<path fill="none" opacity="0.5" d="M26.3333 25.3335H11" stroke="#F2994A" stroke-width="2" stroke-linecap="round"/>
</svg>
