<svg width="24" height="24" viewBox="0 0 24 24" fill="none" xmlns="http://www.w3.org/2000/svg">
<path fill="none" d="M18.9998 8C17.3429 8 15.9998 6.65685 15.9998 5C15.9998 3.34315 17.3429 2 18.9998 2C20.6566 2 21.9998 3.34315 21.9998 5C21.9998 6.65685 20.6566 8 18.9998 8Z" stroke="#FF6D00" stroke-width="1.5"/>
<path fill="none" opacity="0.5" d="M14.0002 2.20004C13.354 2.06886 12.6851 2 12.0002 2C6.47739 2 2.00024 6.47715 2.00024 12C2.00024 13.5997 2.37586 15.1116 3.0437 16.4525C3.22118 16.8088 3.28025 17.2161 3.17736 17.6006L2.58175 19.8267C2.32319 20.793 3.20725 21.677 4.17359 21.4185L6.39963 20.8229C6.78417 20.72 7.19145 20.7791 7.54777 20.9565C8.88861 21.6244 10.4005 22 12.0002 22C17.523 22 22.0002 17.5228 22.0002 12C22.0002 11.3151 21.9313 10.6462 21.8002 10" stroke="#FF6D00" stroke-width="1.5" stroke-linecap="round"/>
</svg>
