<svg width="24" height="24" viewBox="0 0 24 24" fill="none" xmlns="http://www.w3.org/2000/svg">
<path fill="none" opacity="0.5" d="M16 4.00195C18.175 4.01406 19.3529 4.11051 20.1213 4.87889C21 5.75757 21 7.17179 21 10.0002V16.0002C21 18.8286 21 20.2429 20.1213 21.1215C19.2426 22.0002 17.8284 22.0002 15 22.0002H9C6.17157 22.0002 4.75736 22.0002 3.87868 21.1215C3 20.2429 3 18.8286 3 16.0002V10.0002C3 7.17179 3 5.75757 3.87868 4.87889C4.64706 4.11051 5.82497 4.01406 8 4.00195" stroke="#002055" stroke-width="1.375"/>
<path fill="none" d="M7.99988 14H15.9999" stroke="#002055" stroke-width="1.375" stroke-linecap="round"/>
<path d="M7.00012 10.5H17.0001" stroke="#002055" stroke-width="1.375" stroke-linecap="round"/>
<path d="M9 17.5H15" stroke="#002055" stroke-width="1.375" stroke-linecap="round"/>
<path d="M7.99988 3.5C7.99988 2.67157 8.67145 2 9.49988 2H14.4999C15.3283 2 15.9999 2.67157 15.9999 3.5V4.5C15.9999 5.32843 15.3283 6 14.4999 6H9.49988C8.67145 6 7.99988 5.32843 7.99988 4.5V3.5Z" stroke="#002055" stroke-width="1.375"/>
</svg>
