<svg width="19" height="19" viewBox="0 0 19 19" fill="none" xmlns="http://www.w3.org/2000/svg">
<path fill="none"  opacity="0.5" d="M1.31856 10.5882C0.986549 8.2807 0.820544 7.127 1.29345 6.14058C1.76635 5.15415 2.77291 4.55455 4.78604 3.35533L5.99778 2.63351C7.82591 1.5445 8.73998 1 9.75 1C10.76 1 11.6741 1.5445 13.5022 2.63351L14.714 3.35533C16.7271 4.55455 17.7337 5.15415 18.2065 6.14058C18.6795 7.127 18.5135 8.2807 18.1814 10.5882L17.9375 12.2833C17.511 15.2474 17.2977 16.7293 16.2696 17.6147C15.2414 18.5 13.7335 18.5 10.7178 18.5H8.78216C5.76645 18.5 4.25858 18.5 3.2304 17.6147C2.20221 16.7293 1.98897 15.2474 1.56248 12.2833L1.31856 10.5882Z" stroke="#5D55E0"/>
<path fill="none"  d="M4.5 9.47219C7.3995 6.3426 12.1005 6.3426 15 9.47219M6.25002 11.3609C8.18305 9.27453 11.317 9.27453 13.25 11.3609M8 13.25C8.96652 12.2068 10.5336 12.2068 11.5 13.25" stroke="#5D55E0" stroke-linecap="round"/>
</svg>
