<svg width="30" height="30" viewBox="0 0 30 30" fill="none" xmlns="http://www.w3.org/2000/svg">
<g clip-path="url(#clip0_64_13788)">
<path fill-rule="evenodd" clip-rule="evenodd" d="M21.2887 11.5126C20.9193 11.1469 20.3212 11.1469 19.9509 11.5126L17.7947 13.6688L15.6956 11.5688C15.33 11.2031 14.7356 11.2031 14.369 11.5688C14.0025 11.9344 14.0025 12.5344 14.369 12.9001L16.4681 14.9907L14.3418 17.1188C13.9724 17.4844 13.9724 18.0844 14.3418 18.4594C14.7112 18.825 15.3102 18.825 15.6796 18.4594L17.8059 16.3313L19.905 18.4313C20.2715 18.797 20.8659 18.797 21.2315 18.4313C21.599 18.0657 21.599 17.4657 21.2315 17.1L19.1325 15.0094L21.2887 12.8531C21.659 12.4781 21.659 11.8876 21.2887 11.5126ZM28.1231 21.5625C28.1231 22.5938 27.2831 23.4375 26.2462 23.4375H9.81275L2.17119 14.9813L9.78557 6.56255H26.2462C27.2831 6.56255 28.1231 7.4063 28.1231 8.43755V21.5625ZM26.2462 4.68755H9.4228C9.16029 4.6688 8.89214 4.7532 8.69152 4.95007L0.267121 14.2688C0.0693082 14.4656 -0.0159924 14.7282 -0.00192993 14.9813C-0.0159924 15.2438 0.0693082 15.5063 0.267121 15.7032L8.69152 25.0219C8.87527 25.2 9.11527 25.2938 9.35528 25.2938V25.3125H26.2462C28.319 25.3125 30 23.6344 30 21.5625V8.43755C30 6.36567 28.319 4.68755 26.2462 4.68755Z" fill="#002055"/>
</g>
<defs>
<clipPath id="clip0_64_13788">
<rect width="30" height="30" fill="white"/>
</clipPath>
</defs>
</svg>
