<svg width="27" height="27" viewBox="0 0 27 27" fill="none" xmlns="http://www.w3.org/2000/svg">
<path fill="none" opacity="0.5" d="M12.5347 22.5C10.0289 22.5 8.77596 22.5 7.73003 21.9359C6.68412 21.3717 6.02007 20.3379 4.69194 18.27L3.92604 17.0775C2.80867 15.3378 2.25 14.468 2.25 13.5C2.25 12.532 2.80867 11.6622 3.92604 9.92251L4.69194 8.73001C6.02007 6.66215 6.68412 5.62822 7.73003 5.06411C8.77596 4.5 10.0289 4.5 12.5347 4.5H15.5014C19.8612 4.5 22.0411 4.5 23.3956 5.81802C24.75 7.13604 24.75 9.25736 24.75 13.5C24.75 17.7426 24.75 19.864 23.3956 21.1819C22.0411 22.5 19.8612 22.5 15.5014 22.5H12.5347Z" stroke="#D12431" stroke-width="1.8"/>
<path d="M17.4375 10.6875L11.8125 16.3125M11.8125 10.6875L17.4375 16.3125" stroke="#D12431" stroke-width="1.8" stroke-linecap="round"/>
</svg>
