<svg width="25" height="24" viewBox="0 0 25 24" fill="none" xmlns="http://www.w3.org/2000/svg">
<path d="M19.1959 12.7795L19.9388 12.8829L19.1959 12.7795ZM18.9336 14.6645L19.6764 14.7679L18.9336 14.6645ZM6.42385 14.6645L7.16669 14.5611L6.42385 14.6645ZM6.16151 12.7795L5.41867 12.8829L6.16151 12.7795ZM9.86236 21.7368L9.57077 22.4278L9.86236 21.7368ZM7.15379 18.5603L7.85778 18.3017L7.15379 18.5603ZM18.2036 18.5603L18.9076 18.819V18.819L18.2036 18.5603ZM15.4951 21.7368L15.2035 21.0458H15.2035L15.4951 21.7368ZM6.42535 8.92906C6.38617 8.5167 6.02013 8.21418 5.60777 8.25336C5.19541 8.29254 4.89289 8.65858 4.93207 9.07094L5.67871 9L6.42535 8.92906ZM20.4253 9.07094C20.4645 8.65858 20.162 8.29254 19.7497 8.25336C19.3373 8.21418 18.9713 8.5167 18.9321 8.92906L19.6787 9L20.4253 9.07094ZM20.6787 7.75C21.0929 7.75 21.4287 7.41421 21.4287 7C21.4287 6.58579 21.0929 6.25 20.6787 6.25V7V7.75ZM4.67871 6.25C4.2645 6.25 3.92871 6.58579 3.92871 7C3.92871 7.41421 4.2645 7.75 4.67871 7.75V7V6.25ZM9.92871 18C9.92871 18.4142 10.2645 18.75 10.6787 18.75C11.0929 18.75 11.4287 18.4142 11.4287 18H10.6787H9.92871ZM11.4287 10C11.4287 9.58579 11.0929 9.25 10.6787 9.25C10.2645 9.25 9.92871 9.58579 9.92871 10H10.6787H11.4287ZM13.9287 18C13.9287 18.4142 14.2645 18.75 14.6787 18.75C15.0929 18.75 15.4287 18.4142 15.4287 18H14.6787H13.9287ZM15.4287 10C15.4287 9.58579 15.0929 9.25 14.6787 9.25C14.2645 9.25 13.9287 9.58579 13.9287 10H14.6787H15.4287ZM16.6787 7V7.75H17.4287V7H16.6787ZM8.67871 7H7.92871V7.75H8.67871V7ZM19.1959 12.7795L18.4531 12.6761L18.1907 14.5611L18.9336 14.6645L19.6764 14.7679L19.9388 12.8829L19.1959 12.7795ZM6.42385 14.6645L7.16669 14.5611L6.90435 12.6761L6.16151 12.7795L5.41867 12.8829L5.68101 14.7679L6.42385 14.6645ZM12.6787 22V21.25C11.1495 21.25 10.6041 21.2358 10.1539 21.0458L9.86236 21.7368L9.57077 22.4278C10.3679 22.7642 11.2843 22.75 12.6787 22.75V22ZM6.42385 14.6645L5.68101 14.7679C5.96071 16.7777 6.11277 17.9017 6.44981 18.819L7.15379 18.5603L7.85778 18.3017C7.59027 17.5736 7.45722 16.6488 7.16669 14.5611L6.42385 14.6645ZM9.86236 21.7368L10.1539 21.0458C9.23151 20.6566 8.37367 19.7058 7.85778 18.3017L7.15379 18.5603L6.4498 18.819C7.06441 20.4918 8.16076 21.8328 9.57077 22.4278L9.86236 21.7368ZM18.9336 14.6645L18.1907 14.5611C17.9002 16.6488 17.7672 17.5736 17.4996 18.3017L18.2036 18.5603L18.9076 18.819C19.2446 17.9017 19.3967 16.7777 19.6764 14.7679L18.9336 14.6645ZM12.6787 22V22.75C14.0731 22.75 14.9896 22.7642 15.7867 22.4278L15.4951 21.7368L15.2035 21.0458C14.7533 21.2358 14.2079 21.25 12.6787 21.25V22ZM18.2036 18.5603L17.4996 18.3017C16.9837 19.7058 16.1259 20.6566 15.2035 21.0458L15.4951 21.7368L15.7867 22.4278C17.1967 21.8328 18.293 20.4918 18.9076 18.819L18.2036 18.5603ZM6.16151 12.7795L6.90435 12.6761C6.68223 11.08 6.51637 9.88703 6.42535 8.92906L5.67871 9L4.93207 9.07094C5.0269 10.069 5.19832 11.2995 5.41867 12.8829L6.16151 12.7795ZM19.1959 12.7795L19.9388 12.8829C20.1591 11.2995 20.3305 10.069 20.4253 9.07094L19.6787 9L18.9321 8.92906C18.8411 9.88702 18.6752 11.08 18.4531 12.6761L19.1959 12.7795ZM20.6787 7V6.25H4.67871V7V7.75H20.6787V7ZM10.6787 18H11.4287V10H10.6787H9.92871V18H10.6787ZM14.6787 18H15.4287V10H14.6787H13.9287V18H14.6787ZM16.6787 6H15.9287V7H16.6787H17.4287V6H16.6787ZM16.6787 7V6.25H8.67871V7V7.75H16.6787V7ZM8.67871 7H9.42871V6H8.67871H7.92871V7H8.67871ZM12.6787 2V2.75C14.4736 2.75 15.9287 4.20507 15.9287 6H16.6787H17.4287C17.4287 3.37665 15.3021 1.25 12.6787 1.25V2ZM12.6787 2V1.25C10.0554 1.25 7.92871 3.37665 7.92871 6H8.67871H9.42871C9.42871 4.20507 10.8838 2.75 12.6787 2.75V2Z" fill="#EB001B"/>
</svg>
