<svg width="25" height="24" viewBox="0 0 25 24" fill="none" xmlns="http://www.w3.org/2000/svg">
<rect x="0.5" width="24" height="24" rx="12" fill="#4961AC"/>
<mask id="mask0_2653_11298" style="mask-type:alpha" maskUnits="userSpaceOnUse" x="8" y="7" width="9" height="10">
<path d="M10.8929 15.5866L15.0596 11.4198L13.0805 9.44069L8.91374 13.6075C8.85637 13.6649 8.81562 13.7368 8.79581 13.8155L8.33398 16.1663L10.6844 15.7045C10.7633 15.6848 10.8355 15.644 10.8929 15.5866ZM16.4048 10.0747C16.5729 9.90653 16.6673 9.67848 16.6673 9.44069C16.6673 9.20291 16.5729 8.97486 16.4048 8.80669L15.6936 8.09556C15.5255 7.92745 15.2974 7.83301 15.0596 7.83301C14.8218 7.83301 14.5938 7.92745 14.4256 8.09556L13.7145 8.80669L15.6936 10.7858L16.4048 10.0747Z" fill="#006FFD"/>
</mask>
<g mask="url(#mask0_2653_11298)">
<rect x="7.5" y="7" width="10" height="10" fill="white"/>
</g>
</svg>
