<svg width="37" height="37" viewBox="0 0 37 37" fill="none" xmlns="http://www.w3.org/2000/svg">
<path fill="none" opacity="0.5" d="M18.5002 33.9167C27.0146 33.9167 33.9168 27.0144 33.9168 18.5C33.9168 9.98565 27.0146 3.08337 18.5002 3.08337C9.98577 3.08337 3.0835 9.98565 3.0835 18.5C3.0835 27.0144 9.98577 33.9167 18.5002 33.9167Z" stroke="#1C274C" stroke-width="0.5"/>
<path d="M19.7972 13.5791L20.3069 13.0695C21.1513 12.2251 22.5204 12.2251 23.3648 13.0695C24.2093 13.9139 24.2093 15.283 23.3648 16.1274L22.8552 16.637M19.7972 13.5791C19.7972 13.5791 19.861 14.6621 20.8165 15.6177C21.7722 16.5733 22.8552 16.637 22.8552 16.637M19.7972 13.5791L15.1118 18.2646C14.7944 18.582 14.6358 18.7406 14.4993 18.9156C14.3384 19.122 14.2003 19.3453 14.0878 19.5816C13.9922 19.7819 13.9213 19.9948 13.7793 20.4205L13.3249 21.7837M22.8552 16.637L18.1697 21.3225C17.8523 21.6399 17.6937 21.7985 17.5187 21.935C17.3124 22.096 17.089 22.234 16.8527 22.3466C16.6524 22.4421 16.4396 22.513 16.0137 22.655L14.6506 23.1094M13.3249 21.7837L13.0309 22.6658C12.961 22.8753 13.0157 23.1063 13.1718 23.2625C13.328 23.4187 13.559 23.4733 13.7685 23.4034L14.6506 23.1094M13.3249 21.7837L14.6506 23.1094" stroke="#1C274C" stroke-width="1.8"/>
</svg>
