<svg width="19" height="19" viewBox="0 0 19 19" fill="none" xmlns="http://www.w3.org/2000/svg">
<path d="M13.1663 0.75H5.83375C2.64875 0.75 0.75 2.64875 0.75 5.83375V13.1575C0.75 16.3512 2.64875 18.25 5.83375 18.25H13.1575C16.3425 18.25 18.2412 16.3512 18.2412 13.1662V5.83375C18.25 2.64875 16.3513 0.75 13.1663 0.75ZM8.58125 14.3212C8.3275 14.575 7.84625 14.82 7.49625 14.8725L5.34375 15.1787C5.265 15.1875 5.18625 15.1962 5.1075 15.1962C4.74875 15.1962 4.41625 15.0737 4.18 14.8375C3.89125 14.5487 3.76875 14.1287 3.83875 13.665L4.145 11.5125C4.1975 11.1537 4.43375 10.6812 4.69625 10.4275L8.59875 6.525C8.66875 6.70875 8.73875 6.8925 8.835 7.1025C8.9225 7.28625 9.01875 7.47875 9.12375 7.65375C9.21125 7.8025 9.3075 7.9425 9.38625 8.0475C9.4825 8.19625 9.59625 8.33625 9.66625 8.415C9.71 8.47625 9.745 8.52 9.7625 8.5375C9.98125 8.8 10.235 9.045 10.4538 9.22875C10.515 9.29 10.55 9.325 10.5675 9.33375C10.6988 9.43875 10.83 9.54375 10.9437 9.6225C11.0837 9.7275 11.2238 9.82375 11.3725 9.9025C11.5475 10.0075 11.74 10.1037 11.9325 10.2C12.1337 10.2875 12.3175 10.3662 12.5013 10.4275L8.58125 14.3212ZM14.1988 8.70375L13.3938 9.5175C13.3413 9.57 13.2713 9.59625 13.2013 9.59625C13.175 9.59625 13.14 9.59625 13.1225 9.5875C11.3462 9.08 9.92875 7.6625 9.42125 5.88625C9.395 5.79 9.42125 5.685 9.49125 5.62375L10.305 4.81C11.635 3.48 12.9037 3.50625 14.2075 4.81C14.8725 5.475 15.1962 6.11375 15.1962 6.77875C15.1875 7.40875 14.8638 8.03875 14.1988 8.70375Z" fill="#D12431"/>
</svg>
