<svg width="86" height="24" viewBox="0 0 86 24" fill="none" xmlns="http://www.w3.org/2000/svg">
<path d="M8 14C8 14 9.5 16 12 16C14.5 16 16 14 16 14M17 9.24C16.605 9.725 16.065 10 15.5 10C14.935 10 14.41 9.725 14 9.24M10 9.24C9.605 9.725 9.065 10 8.5 10C7.935 10 7.41 9.725 7 9.24M22 12C22 17.5228 17.5228 22 12 22C6.47715 22 2 17.5228 2 12C2 6.47715 6.47715 2 12 2C17.5228 2 22 6.47715 22 12Z" stroke="#231F20" stroke-width="2" stroke-linecap="round" stroke-linejoin="round"/>
<path d="M47 16C47 16 45.5 14 43 14C40.5 14 39 16 39 16M46 9H46.01M40 9H40.01M53 12C53 17.5228 48.5228 22 43 22C37.4772 22 33 17.5228 33 12C33 6.47715 37.4772 2 43 2C48.5228 2 53 6.47715 53 12ZM46.5 9C46.5 9.27614 46.2761 9.5 46 9.5C45.7239 9.5 45.5 9.27614 45.5 9C45.5 8.72386 45.7239 8.5 46 8.5C46.2761 8.5 46.5 8.72386 46.5 9ZM40.5 9C40.5 9.27614 40.2761 9.5 40 9.5C39.7239 9.5 39.5 9.27614 39.5 9C39.5 8.72386 39.7239 8.5 40 8.5C40.2761 8.5 40.5 8.72386 40.5 9Z" stroke="#231F20" stroke-width="2" stroke-linecap="round" stroke-linejoin="round"/>
<path d="M77 9H77.01M71 9H71.01M84 12C84 17.5228 79.5228 22 74 22C68.4772 22 64 17.5228 64 12C64 6.47715 68.4772 2 74 2C79.5228 2 84 6.47715 84 12ZM77.5 9C77.5 9.27614 77.2761 9.5 77 9.5C76.7239 9.5 76.5 9.27614 76.5 9C76.5 8.72386 76.7239 8.5 77 8.5C77.2761 8.5 77.5 8.72386 77.5 9ZM71.5 9C71.5 9.27614 71.2761 9.5 71 9.5C70.7239 9.5 70.5 9.27614 70.5 9C70.5 8.72386 70.7239 8.5 71 8.5C71.2761 8.5 71.5 8.72386 71.5 9ZM74 17.5C76.5005 17.5 78.5 15.667 78.5 14H69.5C69.5 15.667 71.4995 17.5 74 17.5Z" stroke="#231F20" stroke-width="2" stroke-linecap="round" stroke-linejoin="round"/>
</svg>
