<svg width="22" height="11" viewBox="0 0 22 11" fill="none" xmlns="http://www.w3.org/2000/svg">
<path fill-rule="evenodd" clip-rule="evenodd" d="M21.0454 0.060832C21.4261 0.224002 21.6024 0.664912 21.4393 1.04563L20.7499 0.750192C21.4393 1.04563 21.4394 1.04546 21.4393 1.04563L21.4386 1.04731L21.4375 1.0498L21.4343 1.05716L21.4236 1.08123C21.4146 1.10137 21.4018 1.12958 21.3852 1.16527C21.3519 1.23662 21.3033 1.33794 21.2388 1.46435C21.1099 1.717 20.9175 2.07087 20.6584 2.48666C20.2328 3.1697 19.6224 4.0278 18.8119 4.8804L19.7803 5.8487C20.0731 6.1416 20.0731 6.6165 19.7803 6.9094C19.4874 7.2023 19.0125 7.2023 18.7196 6.9094L17.719 5.9088C17.0593 6.4615 16.3028 6.9802 15.445 7.4064L16.3786 8.8412C16.6045 9.1883 16.5062 9.6529 16.159 9.8788C15.8118 10.1047 15.3472 10.0064 15.1213 9.6592L14.0321 7.9853C13.2528 8.2398 12.409 8.4128 11.4999 8.4748V10.2502C11.4999 10.6644 11.1641 11.0002 10.7499 11.0002C10.3357 11.0002 9.9999 10.6644 9.9999 10.2502V8.4748C9.1189 8.4147 8.29909 8.2504 7.53982 8.0086L6.46575 9.6593C6.23984 10.0065 5.77526 10.1048 5.42807 9.8789C5.08089 9.653 4.98257 9.1884 5.20847 8.8412L6.12089 7.439C5.2565 7.0168 4.49381 6.5004 3.82842 5.9484L2.86744 6.9094C2.57455 7.2023 2.09968 7.2023 1.80678 6.9094C1.51389 6.6165 1.51389 6.1417 1.80678 5.8488L2.73055 4.925C1.90599 4.0653 1.28525 3.19675 0.852772 2.50486C0.589841 2.08423 0.394601 1.72584 0.263881 1.46988C0.198481 1.34182 0.149101 1.23914 0.115371 1.16683C0.0985015 1.13067 0.0855315 1.10207 0.0764115 1.08167L0.0656214 1.05729L0.0623814 1.04984L0.0612914 1.04733L0.0608814 1.04638C0.0608114 1.0462 0.0605614 1.04563 0.749921 0.750192L0.0608814 1.04638C-0.102279 0.665652 0.0737615 0.224002 0.454481 0.060832C0.834891 -0.102198 1.27539 0.0737421 1.43888 0.453812C1.43882 0.453682 1.43894 0.453942 1.43888 0.453812L1.43983 0.456002L1.44591 0.469722C1.4518 0.482912 1.4614 0.504102 1.47472 0.532672C1.50139 0.589832 1.54296 0.676442 1.59976 0.787672C1.71345 1.01029 1.88762 1.33046 2.12472 1.70979C2.60033 2.47067 3.32157 3.45728 4.30561 4.3718C5.17151 5.1765 6.23259 5.9178 7.50165 6.406C8.45614 6.7732 9.5354 7.0002 10.7499 7.0002C11.9916 7.0002 13.092 6.763 14.0624 6.381C15.3238 5.8845 16.3777 5.1384 17.2366 4.3322C18.2062 3.42216 18.9168 2.44535 19.3854 1.6934C19.619 1.3185 19.7905 1.00246 19.9025 0.782862C19.9585 0.673152 19.9994 0.587762 20.0257 0.531442C20.0388 0.503282 20.0483 0.482422 20.0541 0.469432L20.06 0.455952L20.0606 0.454752C20.0605 0.454852 20.0606 0.454662 20.0606 0.454752M21.0454 0.060832C20.6647 -0.102288 20.2238 0.074232 20.0606 0.454752L21.0454 0.060832ZM1.43888 0.453812C1.43882 0.453682 1.43894 0.453942 1.43888 0.453812V0.453812Z" fill="#002055"/>
</svg>
