<svg width="25" height="25" viewBox="0 0 25 25" fill="none" xmlns="http://www.w3.org/2000/svg">
<path d="M2.08301 12.5002C2.08301 18.2531 6.74671 22.9168 12.4997 22.9168C14.2256 22.9168 15.6247 21.5177 15.6247 19.7918V19.271C15.6247 18.7872 15.6247 18.5453 15.6514 18.3423C15.836 16.94 16.9395 15.8365 18.3418 15.6519C18.5449 15.6252 18.7867 15.6252 19.2705 15.6252H19.7913C21.5172 15.6252 22.9163 14.2261 22.9163 12.5002C22.9163 6.7472 18.2526 2.0835 12.4997 2.0835C6.74671 2.0835 2.08301 6.7472 2.08301 12.5002Z" stroke="#B8C6E5" stroke-width="2" stroke-linecap="round" stroke-linejoin="round"/>
<path d="M7.29134 13.5418C7.86664 13.5418 8.33301 13.0755 8.33301 12.5002C8.33301 11.9249 7.86664 11.4585 7.29134 11.4585C6.71604 11.4585 6.24967 11.9249 6.24967 12.5002C6.24967 13.0755 6.71604 13.5418 7.29134 13.5418Z" stroke="#B8C6E5" stroke-width="2" stroke-linecap="round" stroke-linejoin="round"/>
<path d="M16.6663 9.37516C17.2416 9.37516 17.708 8.90879 17.708 8.3335C17.708 7.7582 17.2416 7.29183 16.6663 7.29183C16.091 7.29183 15.6247 7.7582 15.6247 8.3335C15.6247 8.90879 16.091 9.37516 16.6663 9.37516Z" stroke="#B8C6E5" stroke-width="2" stroke-linecap="round" stroke-linejoin="round"/>
<path d="M10.4163 8.3335C10.9916 8.3335 11.458 7.86713 11.458 7.29183C11.458 6.71653 10.9916 6.25016 10.4163 6.25016C9.84104 6.25016 9.37467 6.71653 9.37467 7.29183C9.37467 7.86713 9.84104 8.3335 10.4163 8.3335Z" stroke="#B8C6E5" stroke-width="2" stroke-linecap="round" stroke-linejoin="round"/>
</svg>
