<svg width="25" height="24" viewBox="0 0 25 24" fill="none" xmlns="http://www.w3.org/2000/svg">
<path d="M12.0474 17V22M12.0474 17C13.4101 17 14.6455 16.4548 15.5474 15.5707M12.0474 17C10.6846 17 9.44924 16.4548 8.54736 15.5707M10.0474 22H14.0474M7.04736 12H2.04736M7.04736 12C7.04736 10.6013 7.62168 9.33675 8.54736 8.42928M7.04736 12C7.04736 13.3987 7.62168 14.6633 8.54736 15.5707M2.04736 10L2.04736 14M17.0474 12H22.0474M17.0474 12C17.0474 10.6013 16.473 9.33675 15.5474 8.42928M17.0474 12C17.0474 13.3987 16.473 14.6633 15.5474 15.5707M22.0474 14V10M12.0474 7V2M12.0474 7C10.6846 7 9.44924 7.54516 8.54736 8.42928M12.0474 7C13.4101 7 14.6455 7.54516 15.5474 8.42928M10.0474 2L14.0474 2M19.7039 19.6569L16.0471 16L15.5474 15.5707M18.29 21.0711L21.1184 18.2426M4.4618 4.41422L8.04742 7.99984L8.54736 8.42928M5.87601 3.00001L3.04758 5.82843M19.7043 4.4142L16.0476 7.99998L15.5474 8.42928M18.29 3.00001L21.1184 5.82843M4.46214 19.6569L8.04759 16L8.54736 15.5707M5.87601 21.0711L3.04759 18.2426" stroke="#756EF3" stroke-width="1.5" stroke-linecap="round"/>
</svg>
