<svg width="25" height="24" viewBox="0 0 25 24" fill="none" xmlns="http://www.w3.org/2000/svg">
<path d="M12.0479 17V22M12.0479 17C13.4106 17 14.646 16.4548 15.5479 15.5707M12.0479 17C10.6851 17 9.44973 16.4548 8.54785 15.5707M10.0479 22H14.0479M7.04785 12H2.04785M7.04785 12C7.04785 10.6013 7.62217 9.33675 8.54785 8.42928M7.04785 12C7.04785 13.3987 7.62217 14.6633 8.54785 15.5707M2.04785 10L2.04785 14M17.0479 12H22.0479M17.0479 12C17.0479 10.6013 16.4735 9.33675 15.5479 8.42928M17.0479 12C17.0479 13.3987 16.4735 14.6633 15.5479 15.5707M22.0479 14V10M12.0479 7V2M12.0479 7C10.6851 7 9.44973 7.54516 8.54785 8.42928M12.0479 7C13.4106 7 14.646 7.54516 15.5479 8.42928M10.0479 2L14.0479 2M19.7044 19.6569L16.0476 16L15.5479 15.5707M18.2905 21.0711L21.1189 18.2426M4.46229 4.41422L8.0479 7.99984L8.54785 8.42928M5.8765 3.00001L3.04807 5.82843M19.7048 4.4142L16.0481 7.99998L15.5479 8.42928M18.2905 3.00001L21.1189 5.82843M4.46263 19.6569L8.04808 16L8.54785 15.5707M5.8765 21.0711L3.04807 18.2426" stroke="#FF6D00" stroke-width="1.5" stroke-linecap="round"/>
</svg>
