<svg width="20" height="20" viewBox="0 0 20 20" fill="none" xmlns="http://www.w3.org/2000/svg">
<path fill="none"  opacity="0.5" d="M19 10.1665H0.666748" stroke="#5D55E0" stroke-linecap="round"/>
<path fill="none"  opacity="0.5" d="M9.83325 1V19.3333" stroke="#5D55E0" stroke-linecap="round"/>
<path fill="none"  d="M10.75 10.1665C10.75 12.1915 12.3917 13.8332 14.4167 13.8332" stroke="#5D55E0" stroke-linecap="round"/>
<path fill="none"  d="M8.91665 10.1665C8.91665 12.1915 7.27504 13.8332 5.25 13.8332" stroke="#5D55E0" stroke-linecap="round"/>
<path fill="none"  d="M9.83325 8.36547C9.83325 6.99972 10.7627 5.80925 12.0877 5.47802C13.5577 5.1105 14.8894 6.4421 14.5218 7.91218C14.1906 9.23712 13.0001 10.1666 11.6344 10.1666H9.83325V8.36547Z" stroke="#5D55E0"/>
<path fill="none"  d="M9.83337 8.36547C9.83337 6.99972 8.90387 5.80925 7.57893 5.47802C6.10886 5.1105 4.77725 6.4421 5.14477 7.91218C5.476 9.23712 6.66647 10.1666 8.03222 10.1666H9.83337V8.36547Z" stroke="#5D55E0"/>
<path fill="none"  d="M0.666748 10.1666C0.666748 5.84543 0.666748 3.68484 2.00917 2.34242C3.35159 1 5.51218 1 9.83337 1C14.1545 1 16.3152 1 17.6575 2.34242C19 3.68484 19 5.84543 19 10.1666C19 14.4878 19 16.6484 17.6575 17.9908C16.3152 19.3333 14.1545 19.3333 9.83337 19.3333C5.51218 19.3333 3.35159 19.3333 2.00917 17.9908C0.666748 16.6484 0.666748 14.4878 0.666748 10.1666Z" stroke="#5D55E0"/>
</svg>
