<svg width="35" height="35" viewBox="0 0 35 35" fill="none" xmlns="http://www.w3.org/2000/svg">
<path fill="none"  d="M29.6208 18.4441L30.3757 15.6267C31.2569 12.3381 31.6974 10.6937 31.3657 9.27075C31.1037 8.14716 30.5144 7.12649 29.6724 6.33781C28.6059 5.33897 26.9615 4.89837 23.6729 4.01718C20.3843 3.13598 18.7398 2.69539 17.3169 3.02719C16.1933 3.28916 15.1726 3.87844 14.384 4.72052C13.5288 5.63359 13.0828 6.97029 12.4191 9.39993C12.3077 9.80795 12.1901 10.2468 12.0634 10.7197L11.3084 13.5372C10.4272 16.8259 9.98665 18.4702 10.3184 19.8932C10.5804 21.0168 11.1697 22.0375 12.0118 22.8262C13.0782 23.825 14.7226 24.2656 18.0113 25.1468C20.9755 25.9411 22.6037 26.3774 23.9382 26.2127C24.0843 26.1948 24.2268 26.1696 24.3673 26.1368C25.4908 25.8749 26.5114 25.2855 27.3001 24.4435C28.2989 23.377 28.7396 21.7327 29.6208 18.4441Z" stroke="#5D55E0" stroke-width="2.1875"/>
<path fill="none"  opacity="0.5" d="M23.9389 26.2122C23.6348 27.1434 23.1002 27.9857 22.3814 28.659C21.3149 29.6578 19.6705 30.0984 16.3819 30.9797C13.0932 31.8608 11.4489 32.3014 10.0259 31.9696C8.9023 31.7077 7.88162 31.1184 7.09294 30.2763C6.0941 29.2098 5.65351 27.5656 4.77231 24.2769L4.01742 21.4595C3.13622 18.1708 2.69563 16.5266 3.02743 15.1035C3.28941 13.98 3.87869 12.9593 4.72076 12.1706C5.78721 11.1718 7.43154 10.7312 10.7202 9.85C11.3424 9.68328 11.9057 9.53234 12.4198 9.39941" stroke="#5D55E0" stroke-width="2.1875"/>
<path fill="none"  d="M17.1748 14.5833L24.218 16.4705" stroke="#5D55E0" stroke-width="2.1875" stroke-linecap="round"/>
<path fill="none"  opacity="0.5" d="M16.042 18.8088L20.268 19.9411" stroke="#5D55E0" stroke-width="2.1875" stroke-linecap="round"/>
</svg>
