<svg width="37" height="37" viewBox="0 0 37 37" fill="none" xmlns="http://www.w3.org/2000/svg">
<path fill="none" opacity="0.5" d="M18.5002 33.9168C27.0146 33.9168 33.9168 27.0146 33.9168 18.5002C33.9168 9.98577 27.0146 3.0835 18.5002 3.0835C9.98577 3.0835 3.0835 9.98577 3.0835 18.5002C3.0835 27.0146 9.98577 33.9168 18.5002 33.9168Z" stroke="#1C274C" stroke-width="0.5"/>
<path fill="none" d="M19.7972 13.579L20.3069 13.0694C21.1513 12.2249 22.5204 12.2249 23.3648 13.0694C24.2093 13.9138 24.2093 15.2828 23.3648 16.1273L22.8552 16.6369M19.7972 13.579C19.7972 13.579 19.861 14.662 20.8165 15.6176C21.7722 16.5732 22.8552 16.6369 22.8552 16.6369M19.7972 13.579L15.1118 18.2645C14.7944 18.5818 14.6358 18.7405 14.4993 18.9155C14.3384 19.1219 14.2003 19.3452 14.0878 19.5815C13.9922 19.7818 13.9213 19.9946 13.7793 20.4204L13.3249 21.7836M22.8552 16.6369L18.1697 21.3224C17.8523 21.6397 17.6937 21.7984 17.5187 21.9349C17.3124 22.0959 17.089 22.2339 16.8527 22.3464C16.6524 22.442 16.4396 22.5129 16.0137 22.6548L14.6506 23.1093M13.3249 21.7836L13.0309 22.6657C12.961 22.8751 13.0157 23.1062 13.1718 23.2624C13.328 23.4185 13.559 23.4731 13.7685 23.4033L14.6506 23.1093M13.3249 21.7836L14.6506 23.1093" stroke="#1C274C" stroke-width="1.8"/>
</svg>
