<svg width="19" height="19" viewBox="0 0 19 19" fill="none" xmlns="http://www.w3.org/2000/svg">
<path d="M14.1662 8.16667V1.5M10.8328 4.83333H17.4995M8.52204 10.5526C7.52072 9.55124 6.73007 8.41904 6.15007 7.21102C6.10018 7.10712 6.07523 7.05516 6.05607 6.98942C5.98797 6.75579 6.03689 6.46891 6.17856 6.27105C6.21843 6.21537 6.26606 6.16774 6.36132 6.07248C6.65266 5.78115 6.79833 5.63548 6.89356 5.48899C7.25273 4.93659 7.25273 4.22443 6.89356 3.67203C6.79833 3.52554 6.65266 3.37988 6.36132 3.08854L6.19893 2.92615C5.75606 2.48328 5.53462 2.26184 5.29681 2.14156C4.82384 1.90233 4.26529 1.90233 3.79232 2.14156C3.5545 2.26184 3.33307 2.48328 2.8902 2.92615L2.75883 3.05751C2.31748 3.49886 2.09681 3.71954 1.92827 4.01956C1.74125 4.35248 1.60678 4.86956 1.60792 5.25141C1.60894 5.59554 1.67569 5.83072 1.8092 6.30109C2.52668 8.82892 3.8804 11.2142 5.87039 13.2042C7.86037 15.1942 10.2457 16.5479 12.7735 17.2654C13.2439 17.3989 13.4791 17.4657 13.8232 17.4667C14.205 17.4678 14.7221 17.3333 15.055 17.1463C15.3551 16.9778 15.5757 16.7571 16.0171 16.3158L16.1484 16.1844C16.5913 15.7415 16.8128 15.5201 16.933 15.2823C17.1723 14.8093 17.1723 14.2508 16.933 13.7778C16.8128 13.54 16.5913 13.3185 16.1484 12.8757L15.9861 12.7133C15.6947 12.4219 15.549 12.2763 15.4026 12.181C14.8502 11.8219 14.138 11.8219 13.5856 12.181C13.4391 12.2763 13.2934 12.4219 13.0021 12.7133C12.9069 12.8085 12.8592 12.8562 12.8035 12.896C12.6057 13.0377 12.3188 13.0866 12.0852 13.0185C12.0194 12.9994 11.9675 12.9744 11.8636 12.9245C10.6556 12.3445 9.52335 11.5539 8.52204 10.5526Z" stroke="#4961AC" stroke-width="1.66667" stroke-linecap="round" stroke-linejoin="round"/>
</svg>
