<svg width="32" height="32" viewBox="0 0 32 32" fill="none" xmlns="http://www.w3.org/2000/svg">
<g opacity="0.5">
<path fill-rule="evenodd" clip-rule="evenodd" d="M16.9997 29.3333C23.8966 28.8214 29.3334 23.0557 29.3334 16.0185V16.0092V16C29.3334 8.63616 23.3638 2.66663 16.0001 2.66663C8.63628 2.66663 2.66675 8.63616 2.66675 16V16.0092V16.0185C2.66675 23.0557 8.10354 28.8214 15.0005 29.3333V29.2964C8.10656 28.7854 2.67151 23.0325 2.66675 16.0092C2.67173 8.63944 8.63936 2.66663 16.0001 2.66663C23.3607 2.66663 29.3285 8.63944 29.3334 16.0092C29.3286 23.0325 23.8935 28.7854 16.9997 29.2964V29.3333Z" fill="#F4F4F4"/>
<path d="M15.9998 2.91663C23.2221 2.91663 29.0789 8.77735 29.0837 16.0094L29.0789 16.3307C28.9141 22.9683 23.8063 28.3795 17.2976 29.0201L16.9812 29.0475C16.6574 29.0716 16.3299 29.0836 15.9998 29.0836C15.8349 29.0836 15.6709 29.0799 15.5076 29.0739L15.0193 29.0475C8.25502 28.5462 2.92163 22.9007 2.91675 16.0094L2.92163 15.6715C3.10528 8.59576 8.89032 2.9168 15.9998 2.91663Z" fill="#F4F4F4" stroke="#C6CDD5" stroke-width="0.5"/>
</g>
<path d="M11.3333 16.6863C11.3333 18.9233 12.9031 20.7933 14.9998 21.2519L15.0003 29.2965C15.3303 29.3211 15.6637 29.3335 15.9999 29.3335C16.3362 29.3335 16.6695 29.3211 16.9995 29.2965L16.9998 21.2519C19.0967 20.7935 20.6666 18.9235 20.6666 16.6863V16.0187C20.6666 15.2812 20.0697 14.6835 19.3333 14.6835H18.9999V12.0131C18.9999 11.4601 18.5522 11.0117 17.9999 11.0117C17.4477 11.0117 16.9999 11.4601 16.9999 12.0131V14.6835H14.9999V12.0131C14.9999 11.4601 14.5522 11.0117 13.9999 11.0117C13.4477 11.0117 12.9999 11.4601 12.9999 12.0131V14.6835H12.6666C11.9302 14.6835 11.3333 15.2812 11.3333 16.0187V16.6863Z" fill="#C6CDD5"/>
</svg>
