<svg width="32" height="32" viewBox="0 0 32 32" fill="none" xmlns="http://www.w3.org/2000/svg">
<g opacity="0.5">
<path fill-rule="evenodd" clip-rule="evenodd" d="M16.9994 29.3333C23.8964 28.8214 29.3332 23.0557 29.3332 16.0185V16.0092V16C29.3332 8.63616 23.3636 2.66663 15.9998 2.66663C8.63604 2.66663 2.6665 8.63616 2.6665 16V16.0092V16.0185C2.6665 23.0557 8.10329 28.8214 15.0002 29.3333V29.2964C8.10632 28.7854 2.67126 23.0325 2.6665 16.0092C2.67149 8.63944 8.63912 2.66663 15.9998 2.66663C23.3605 2.66663 29.3282 8.63944 29.3332 16.0092C29.3284 23.0325 23.8933 28.7854 16.9994 29.2964V29.3333Z" fill="#756EF3"/>
<path d="M15.0002 29.2964C15.3302 29.3209 15.6636 29.3333 15.9998 29.3333C16.3361 29.3333 16.6694 29.3209 16.9994 29.2964C23.8933 28.7854 29.3284 23.0325 29.3332 16.0092C29.3282 8.63944 23.3605 2.66663 15.9998 2.66663C8.63912 2.66663 2.67149 8.63944 2.6665 16.0092C2.67126 23.0325 8.10632 28.7854 15.0002 29.2964Z" fill="#756EF3"/>
</g>
<path d="M11.3335 16.6863C11.3335 18.9233 12.9033 20.7933 15 21.2519L15.0006 29.2965C15.3306 29.3211 15.6639 29.3335 16.0002 29.3335C16.3364 29.3335 16.6698 29.3211 16.9998 29.2965L17 21.2519C19.097 20.7935 20.6668 18.9235 20.6668 16.6863V16.0187C20.6668 15.2812 20.0699 14.6835 19.3335 14.6835H19.0002V12.0131C19.0002 11.4601 18.5524 11.0117 18.0002 11.0117C17.4479 11.0117 17.0002 11.4601 17.0002 12.0131V14.6835H15.0002V12.0131C15.0002 11.4601 14.5524 11.0117 14.0002 11.0117C13.4479 11.0117 13.0002 11.4601 13.0002 12.0131V14.6835H12.6668C11.9305 14.6835 11.3335 15.2812 11.3335 16.0187V16.6863Z" fill="#756EF3"/>
</svg>
