<svg width="32" height="32" viewBox="0 0 32 32" fill="none" xmlns="http://www.w3.org/2000/svg">
<path  opacity="0.5" d="M21.379 27.3126C20.883 27.5556 20.6779 28.1545 20.9209 28.6505C21.1638 29.1465 21.7629 29.3516 22.2589 29.1086L21.379 27.3126ZM13.5497 28.3097C7.91752 27.1646 3.66675 22.1418 3.66675 16.1108H1.66675C1.66675 23.1002 6.59444 28.9365 13.1512 30.2696L13.5497 28.3097ZM3.66675 16.1108C3.66675 9.23017 9.19636 3.6665 16.0001 3.6665V1.6665C8.0762 1.6665 1.66675 8.14125 1.66675 16.1108H3.66675ZM16.0001 3.6665C22.8038 3.6665 28.3334 9.23017 28.3334 16.1108H30.3334C30.3334 8.14125 23.9239 1.6665 16.0001 1.6665V3.6665ZM17.0001 26.8662V20.1441H15.0001V26.8662H17.0001ZM28.3334 16.1108C28.3334 21.0394 25.4945 25.2966 21.379 27.3126L22.2589 29.1086C27.0398 26.7668 30.3334 21.8252 30.3334 16.1108H28.3334ZM13.1512 30.2696C15.3619 30.719 17.0001 28.8238 17.0001 26.8662H15.0001C15.0001 27.8785 14.2263 28.4472 13.5497 28.3097L13.1512 30.2696Z" fill="#FF6D00"/>
<path fill="none" d="M12 15.7332C12 15.1441 12.4776 14.6665 13.0667 14.6665H18.9333C19.5224 14.6665 20 15.1441 20 15.7332V15.9998C20 18.209 18.2092 19.9998 16 19.9998C13.7908 19.9998 12 18.209 12 15.9998V15.7332Z" stroke="#FF6D00" stroke-width="2"/>
<path fill="none" d="M18 14.6667V12" stroke="#FF6D00" stroke-width="2" stroke-linecap="round"/>
<path fill="none" d="M14 14.6667V12" stroke="#FF6D00" stroke-width="2" stroke-linecap="round"/>
</svg>
