<svg width="26" height="26" viewBox="0 0 26 26" fill="none" xmlns="http://www.w3.org/2000/svg">
<path  fill="none" d="M9.74967 12.4583C9.74967 13.9541 8.53711 15.1667 7.04134 15.1667C5.54557 15.1667 4.33301 13.9541 4.33301 12.4583C4.33301 10.9626 5.54557 9.75 7.04134 9.75C8.53711 9.75 9.74967 10.9626 9.74967 12.4583Z" stroke="#14237D" stroke-width="1.625"/>
<path  fill="none" opacity="0.5" d="M15.514 18.2018L9.75 14.3975" stroke="#14237D" stroke-width="1.625" stroke-linecap="round"/>
<path  fill="none" opacity="0.5" d="M15.6224 7.40979L9.8584 11.2141" stroke="#14237D" stroke-width="1.625" stroke-linecap="round"/>
<path  fill="none" d="M20.5837 20.0417C20.5837 21.5375 19.3711 22.75 17.8753 22.75C16.3796 22.75 15.167 21.5375 15.167 20.0417C15.167 18.5459 16.3796 17.3334 17.8753 17.3334C19.3711 17.3334 20.5837 18.5459 20.5837 20.0417Z" stroke="#14237D" stroke-width="1.625"/>
<path  fill="none" d="M20.5837 5.95833C20.5837 7.4541 19.3711 8.66667 17.8753 8.66667C16.3796 8.66667 15.167 7.4541 15.167 5.95833C15.167 4.46256 16.3796 3.25 17.8753 3.25C19.3711 3.25 20.5837 4.46256 20.5837 5.95833Z" stroke="#14237D" stroke-width="1.625"/>
</svg>
