<svg width="20" height="20" viewBox="0 0 20 20" fill="none" xmlns="http://www.w3.org/2000/svg">
<path fill="none"  opacity="0.5" d="M15.6666 4.75977C16.8584 4.87699 17.6605 5.14192 18.2593 5.74067C19.3333 6.81461 19.3333 8.54305 19.3333 12.0001C19.3333 15.457 19.3333 17.1854 18.2593 18.2594C17.1854 19.3334 15.4569 19.3334 12 19.3334H8.3333C4.87635 19.3334 3.14788 19.3334 2.07393 18.2594C1 17.1854 1 15.457 1 12.0001C1 8.54305 1 6.81461 2.07393 5.74067C2.67268 5.14192 3.47489 4.87699 4.66665 4.75977" stroke="#5D55E0"/>
<path fill="none"  d="M8.33325 4.66675H11.9999" stroke="#5D55E0" stroke-linecap="round"/>
<path fill="none"  d="M9.25 7.41675H11.0833" stroke="#5D55E0" stroke-linecap="round"/>
<path fill="none"  d="M6.64561 9.98247L5.98594 9.43275C5.33718 8.8921 5.01279 8.62177 4.83971 8.25223C4.66663 7.88269 4.66663 7.46044 4.66663 6.61593V5.58331C4.66663 3.42272 4.66663 2.34242 5.33783 1.67121C6.00905 1 7.08935 1 9.24994 1H11.0833C13.2438 1 14.3241 1 14.9954 1.67121C15.6666 2.34242 15.6666 3.42272 15.6666 5.58331V6.61593C15.6666 7.46044 15.6666 7.88269 15.4935 8.25223C15.3204 8.62177 14.996 8.8921 14.3472 9.43275L13.6876 9.98247C12.0041 11.3854 11.1622 12.0869 10.1666 12.0869C9.17101 12.0869 8.32918 11.3854 6.64561 9.98247Z" stroke="#5D55E0" stroke-linecap="round"/>
<path fill="none"  d="M4.66663 8.33325L6.64561 9.98242C8.32918 11.3854 9.17101 12.0869 10.1666 12.0869C11.1622 12.0869 12.0041 11.3854 13.6876 9.98242L15.6666 8.33325" stroke="#5D55E0" stroke-linecap="round"/>
</svg>
