<svg width="11" height="13" viewBox="0 0 11 13" fill="none" xmlns="http://www.w3.org/2000/svg">
<path d="M7 2.5C7 3.32843 6.32845 4 5.5 4C4.67155 4 4 3.32843 4 2.5C4 1.67157 4.67155 1 5.5 1C6.32845 1 7 1.67157 7 2.5Z" stroke="#1C274C" stroke-width="1.81"/>
<path d="M10 5C10 5 7.34702 6 5.5 6C3.65295 6 1 5 1 5" stroke="#1C274C" stroke-width="1.81" stroke-linecap="round"/>
<path d="M5 7V8.03729C5 8.44821 5.1654 8.85043 5.4765 9.19607L8 12" stroke="#1C274C" stroke-width="1.81" stroke-linecap="round"/>
<path d="M5 7V8.03729C5 8.44821 4.88973 8.85043 4.68233 9.19607L3 12" stroke="#1C274C" stroke-width="1.81" stroke-linecap="round"/>
</svg>
