<svg width="34" height="34" viewBox="0 0 34 34" fill="none" xmlns="http://www.w3.org/2000/svg">
<path d="M10.8128 22.0975C10.5199 22.3903 10.5199 22.8652 10.8128 23.1581C11.1057 23.451 11.5806 23.451 11.8735 23.1581L11.3431 22.6278L10.8128 22.0975ZM23.1872 11.8444C23.4801 11.5515 23.4801 11.0766 23.1872 10.7837C22.8943 10.4909 22.4194 10.4909 22.1265 10.7837L22.6568 11.3141L23.1872 11.8444ZM16.2895 9.85698C15.8753 9.85882 15.541 10.1961 15.5429 10.6103C15.5447 11.0245 15.882 11.3588 16.2962 11.357L16.2929 10.607L16.2895 9.85698ZM18.775 10.5959L18.7784 11.3459L18.7784 11.3459L18.775 10.5959ZM23.375 15.1959L24.125 15.1992L24.125 15.1992L23.375 15.1959ZM22.614 17.6747C22.6121 18.0889 22.9464 18.4262 23.3606 18.428C23.7748 18.4299 24.1121 18.0956 24.1139 17.6814L23.364 17.678L22.614 17.6747ZM22.4212 11.1066L22.8802 10.5135L22.8802 10.5135L22.4212 11.1066ZM22.8643 11.5497L23.4575 11.0907L23.4575 11.0907L22.8643 11.5497ZM11.3431 22.6278L11.8735 23.1581L23.1872 11.8444L22.6568 11.3141L22.1265 10.7837L10.8128 22.0975L11.3431 22.6278ZM16.2929 10.607L16.2962 11.357L18.7784 11.3459L18.775 10.5959L18.7717 9.8459L16.2895 9.85698L16.2929 10.607ZM23.375 15.1959L22.625 15.1925L22.614 17.6747L23.364 17.678L24.1139 17.6814L24.125 15.1992L23.375 15.1959ZM18.775 10.5959L18.7784 11.3459C19.7857 11.3414 20.4779 11.3394 21.0051 11.397C21.5173 11.4529 21.778 11.5571 21.9622 11.6997L22.4212 11.1066L22.8802 10.5135C22.3875 10.1321 21.8148 9.97652 21.168 9.90588C20.5362 9.83689 19.7438 9.84156 18.7717 9.8459L18.775 10.5959ZM23.375 15.1959L24.125 15.1992C24.1294 14.2271 24.134 13.4347 24.065 12.803C23.9944 12.1561 23.8388 11.5835 23.4575 11.0907L22.8643 11.5497L22.2712 12.0087C22.4138 12.1929 22.518 12.4536 22.5739 12.9658C22.6315 13.493 22.6295 14.1852 22.625 15.1925L23.375 15.1959ZM22.4212 11.1066L21.9622 11.6997C22.0779 11.7892 22.1817 11.893 22.2712 12.0087L22.8643 11.5497L23.4575 11.0907C23.2903 10.8746 23.0963 10.6807 22.8802 10.5135L22.4212 11.1066Z" fill="#D12431"/>
</svg>
