<svg width="34" height="34" viewBox="0 0 34 34" fill="none" xmlns="http://www.w3.org/2000/svg">
<path d="M23.1872 11.8439C23.4801 11.5511 23.4801 11.0762 23.1872 10.7833C22.8943 10.4904 22.4194 10.4904 22.1265 10.7833L22.6569 11.3136L23.1872 11.8439ZM10.8128 22.097C10.5199 22.3899 10.5199 22.8648 10.8128 23.1577C11.1057 23.4506 11.5806 23.4506 11.8735 23.1577L11.3432 22.6273L10.8128 22.097ZM17.7105 24.0844C18.1247 24.0826 18.459 23.7453 18.4571 23.3311C18.4553 22.9169 18.118 22.5826 17.7038 22.5844L17.7071 23.3344L17.7105 24.0844ZM15.225 23.3455L15.2216 22.5955L15.2216 22.5955L15.225 23.3455ZM10.625 18.7455L9.87498 18.7422L9.87498 18.7422L10.625 18.7455ZM11.386 16.2667C11.3879 15.8525 11.0536 15.5152 10.6394 15.5134C10.2252 15.5115 9.8879 15.8458 9.88605 16.26L10.636 16.2634L11.386 16.2667ZM11.5788 22.8348L11.1198 23.428L11.1198 23.428L11.5788 22.8348ZM11.1357 22.3917L10.5425 22.8507L10.5425 22.8507L11.1357 22.3917ZM22.6569 11.3136L22.1265 10.7833L10.8128 22.097L11.3432 22.6273L11.8735 23.1577L23.1872 11.8439L22.6569 11.3136ZM17.7071 23.3344L17.7038 22.5844L15.2216 22.5955L15.225 23.3455L15.2283 24.0955L17.7105 24.0844L17.7071 23.3344ZM10.625 18.7455L11.375 18.7489L11.386 16.2667L10.636 16.2634L9.88605 16.26L9.87498 18.7422L10.625 18.7455ZM15.225 23.3455L15.2216 22.5955C14.2143 22.6 13.5221 22.602 12.9949 22.5444C12.4827 22.4885 12.222 22.3843 12.0378 22.2417L11.5788 22.8348L11.1198 23.428C11.6125 23.8093 12.1852 23.9649 12.832 24.0355C13.4638 24.1045 14.2562 24.0998 15.2283 24.0955L15.225 23.3455ZM10.625 18.7455L9.87498 18.7422C9.87064 19.7143 9.86597 20.5067 9.93496 21.1384C10.0056 21.7853 10.1612 22.3579 10.5425 22.8507L11.1357 22.3917L11.7288 21.9327C11.5862 21.7485 11.482 21.4878 11.4261 20.9756C11.3685 20.4484 11.3705 19.7562 11.375 18.7489L10.625 18.7455ZM11.5788 22.8348L12.0378 22.2417C11.9221 22.1522 11.8183 22.0484 11.7288 21.9327L11.1357 22.3917L10.5425 22.8507C10.7097 23.0668 10.9037 23.2607 11.1198 23.428L11.5788 22.8348Z" fill="#008C00"/>
</svg>
