<svg width="32" height="32" viewBox="0 0 32 32" fill="none" xmlns="http://www.w3.org/2000/svg">
<path fill="none" opacity="0.5" d="M9.52275 25.2941C6.91393 25.1993 5.33339 24.8757 4.22884 23.7712C2.66675 22.2092 2.66675 19.6949 2.66675 14.6667C2.66675 9.63835 2.66675 7.1242 4.22884 5.56209C5.79095 4 8.30509 4 13.3334 4H18.6667C23.695 4 26.2093 4 27.7713 5.56209C29.3334 7.1242 29.3334 9.63835 29.3334 14.6667C29.3334 19.6949 29.3334 22.2092 27.7713 23.7712C26.6938 24.8488 25.1631 25.1831 22.6667 25.2867" stroke="#FF6D00" stroke-width="2" stroke-linecap="round"/>
<path fill="none" d="M13.2661 21.4005C14.5075 20.159 15.1282 19.5383 15.8946 19.4979C15.9647 19.4942 16.0349 19.4942 16.105 19.4979C16.8714 19.5383 17.4921 20.159 18.7335 21.4005C21.4346 24.1015 22.7851 25.452 22.4071 26.6174C22.3746 26.7175 22.3342 26.815 22.2863 26.9087C21.7298 28 19.8198 28.0001 15.9998 28.0001C12.1798 28.0001 10.2699 28 9.71327 26.9087C9.66541 26.815 9.62505 26.7175 9.59256 26.6174C9.21445 25.452 10.565 24.1015 13.2661 21.4005Z" stroke="#FF6D00" stroke-width="2"/>
</svg>
