<svg width="24" height="24" viewBox="0 0 24 24" fill="none" xmlns="http://www.w3.org/2000/svg">
<path d="M12 1.875C10.2546 1.8755 8.53887 2.32709 7.01935 3.18596C5.49984 4.04483 4.22808 5.28182 3.32744 6.77696C2.42679 8.27209 1.92784 9.97461 1.87897 11.7194C1.8301 13.4641 2.23298 15.1919 3.04853 16.7351L2.28919 19.3929C2.19732 19.7144 2.1931 20.0546 2.27697 20.3783C2.36084 20.702 2.52975 20.9973 2.76618 21.2338C3.00262 21.4702 3.29798 21.6391 3.62166 21.723C3.94534 21.8069 4.28557 21.8027 4.60707 21.7108L7.26499 20.9515C8.62389 21.6702 10.1286 22.0702 11.665 22.1209C13.2015 22.1716 14.7293 21.8719 16.1327 21.2444C17.5361 20.6168 18.7781 19.678 19.7647 18.4991C20.7513 17.3201 21.4565 15.932 21.8268 14.44C22.1971 12.948 22.2229 11.3913 21.9021 9.88782C21.5813 8.38438 20.9224 6.97372 19.9754 5.76279C19.0284 4.55186 17.818 3.57246 16.4362 2.89885C15.0544 2.22524 13.5373 1.87511 12 1.875ZM12 19.875C10.5859 19.8761 9.1977 19.4957 7.98162 18.7741C7.84983 18.6957 7.70342 18.6451 7.55137 18.6253C7.39931 18.6056 7.24483 18.6171 7.0974 18.6593L4.63802 19.3619L5.34064 16.9026C5.38275 16.7552 5.3943 16.6007 5.37456 16.4487C5.35483 16.2967 5.30423 16.1503 5.22588 16.0185C4.339 14.5241 3.97127 12.7783 4.17997 11.0531C4.38867 9.32789 5.16208 7.72015 6.37974 6.4803C7.59739 5.24046 9.19091 4.43814 10.9121 4.19832C12.6332 3.9585 14.3854 4.29465 15.8956 5.1544C17.4058 6.01415 18.5892 7.34923 19.2616 8.95167C19.934 10.5541 20.0575 12.3339 19.6129 14.0139C19.1683 15.6938 18.1806 17.1796 16.8037 18.2397C15.4267 19.2998 13.7378 19.8748 12 19.875Z" fill="#00A53E"/>
<path d="M17.6231 14.2446C17.5542 14.1339 17.3738 14.0664 17.1039 13.9315C16.8348 13.7966 15.5022 13.1475 15.2551 13.0595C15.0057 12.9693 14.8253 12.9238 14.6449 13.193C14.4667 13.4621 13.9475 14.0664 13.7883 14.2468C13.6307 14.4265 13.473 14.4493 13.2024 14.3165C12.9318 14.1801 12.059 13.8985 11.025 12.984C10.2205 12.2711 9.67707 11.3933 9.52012 11.1242C9.36098 10.8557 9.50399 10.7105 9.6382 10.5771C9.7592 10.4561 9.90881 10.2632 10.0445 10.1055C10.1802 9.9493 10.2249 9.83856 10.3151 9.65888C10.4038 9.47921 10.3591 9.323 10.2924 9.18733C10.2249 9.05239 9.6844 7.73232 9.45779 7.19476C9.23264 6.65794 9.0075 6.74667 8.84909 6.74667C8.69142 6.74667 8.51101 6.72467 8.3306 6.72467C8.15019 6.72467 7.85684 6.78994 7.6097 7.05909C7.36255 7.32823 6.66292 7.97727 6.66292 9.2988C6.66292 10.6218 7.6317 11.8971 7.76737 12.0761C7.90378 12.2543 9.6404 15.055 12.3913 16.1301C15.1436 17.2045 15.1436 16.8459 15.6394 16.8004C16.1366 16.755 17.241 16.1514 17.4654 15.5251C17.6913 14.8959 17.6913 14.3568 17.6231 14.2446Z" fill="#00A53E"/>
</svg>
